<svg xmlns="http://www.w3.org/2000/svg" width="1332" height="1467" viewBox="0 0 1332 1467" fill="none"><g clip-path="url(#clip0_2014_69)"><path d="M730.453 683.43C727.839 683.43 725.332 682.393 723.483 680.547C721.635 678.702 720.596 676.198 720.596 673.588V411.823L599.26 379.356C597.175 378.789 595.334 377.553 594.021 375.839C592.708 374.125 591.996 372.028 591.994 369.87V248.778L530.209 232.443L480.16 282.513C479.105 283.552 477.826 284.336 476.422 284.808C475.018 285.279 473.525 285.425 472.056 285.234C470.586 285.043 469.18 284.521 467.943 283.707C466.706 282.893 465.671 281.808 464.917 280.535L453.383 260.548L447.794 281.245C447.47 282.497 446.899 283.672 446.113 284.7C445.328 285.728 444.345 286.589 443.221 287.231L414.513 303.313C412.271 304.415 409.693 304.626 407.301 303.902C404.909 303.178 402.881 301.575 401.629 299.415C400.376 297.256 399.992 294.702 400.554 292.27C401.116 289.839 402.582 287.711 404.656 286.318L429.248 272.114L439.918 232.494C440.413 230.616 441.457 228.927 442.916 227.643C444.374 226.358 446.183 225.536 448.111 225.281C450.039 225.025 452 225.348 453.744 226.207C455.488 227.067 456.936 228.426 457.905 230.11L474.927 259.482L507.852 226.508L455.161 212.456C453.904 212.141 452.724 211.574 451.693 210.789C450.662 210.004 449.803 209.018 449.166 207.89C448.511 206.766 448.088 205.523 447.922 204.234C447.757 202.944 447.851 201.635 448.2 200.382L480.973 80.8123C481.422 79.1533 482.299 77.6413 483.518 76.4283C484.737 75.2153 486.255 74.3438 487.918 73.9017C489.581 73.4596 491.331 73.4623 492.993 73.9095C494.655 74.3568 496.17 75.2328 497.385 76.4496L584.881 163.603C585.8 164.513 586.529 165.596 587.026 166.789C587.524 167.982 587.78 169.261 587.78 170.553C587.78 171.845 587.524 173.125 587.026 174.317C586.529 175.51 585.8 176.593 584.881 177.503L546.214 216.26L604.29 231.479C606.368 232.084 608.199 233.335 609.515 235.051C610.831 236.766 611.564 238.856 611.607 241.017V362.21L732.892 394.727C734.987 395.285 736.839 396.517 738.162 398.232C739.484 399.947 740.204 402.049 740.209 404.214V673.487C740.209 674.779 739.954 676.059 739.459 677.253C738.963 678.447 738.237 679.532 737.322 680.446C736.406 681.36 735.32 682.085 734.124 682.579C732.928 683.074 731.646 683.328 730.351 683.328L730.453 683.43ZM469.642 196.019L524.111 210.427L563.896 170.604L495.302 102.271L469.642 196.019Z" fill="#AD8D35"></path><path d="M665.771 619.561C664.024 619.556 662.31 619.083 660.808 618.191C659.307 617.298 658.073 616.02 657.235 614.488L549.974 428.158L492.863 443.377C490.774 443.92 488.565 443.764 486.573 442.933C484.582 442.101 482.919 440.64 481.84 438.773C480.761 436.907 480.325 434.738 480.6 432.601C480.875 430.463 481.845 428.475 483.361 426.941L525.179 385.19L505.515 351.151C504.761 350.032 504.245 348.771 504 347.445C503.754 346.119 503.784 344.757 504.088 343.443C504.392 342.13 504.962 340.892 505.765 339.808C506.567 338.724 507.584 337.815 508.753 337.14C509.922 336.464 511.217 336.035 512.558 335.88C513.9 335.725 515.259 335.846 516.551 336.237C517.843 336.628 519.042 337.28 520.071 338.153C521.101 339.025 521.94 340.099 522.536 341.309L546.011 381.893C547.092 383.769 547.524 385.949 547.24 388.095C546.955 390.241 545.969 392.233 544.436 393.763L523.248 414.918L552.21 407.156C554.307 406.583 556.536 406.726 558.543 407.562C560.55 408.399 562.22 409.881 563.287 411.773L665.771 589.834L768.764 411.722C769.852 409.851 771.526 408.391 773.528 407.565C775.53 406.74 777.749 406.596 779.841 407.156L808.753 414.867L787.615 393.763C786.082 392.233 785.096 390.241 784.811 388.095C784.527 385.949 784.958 383.769 786.04 381.893L809.515 341.309C810.158 340.193 811.016 339.215 812.039 338.43C813.062 337.645 814.229 337.069 815.474 336.734C816.72 336.4 818.019 336.314 819.298 336.481C820.577 336.648 821.811 337.064 822.929 337.707C824.046 338.35 825.026 339.206 825.812 340.227C826.598 341.248 827.175 342.414 827.51 343.658C827.845 344.901 827.932 346.198 827.765 347.475C827.597 348.752 827.18 349.984 826.536 351.1L806.872 385.19L848.537 426.788C850.053 428.322 851.023 430.311 851.298 432.448C851.573 434.586 851.137 436.754 850.059 438.621C848.98 440.487 847.317 441.949 845.325 442.781C843.334 443.612 841.124 443.768 839.035 443.225L782.026 428.006L674.257 614.387C673.437 615.93 672.217 617.224 670.724 618.134C669.231 619.045 667.521 619.537 665.771 619.561Z" fill="#AD8D35"></path><path d="M601.75 683.43C599.136 683.43 596.628 682.393 594.78 680.547C592.931 678.702 591.893 676.198 591.893 673.588V404.315C591.886 402.155 592.595 400.054 593.909 398.338C595.224 396.622 597.069 395.388 599.159 394.829L720.698 362.311V275.563V241.22C720.741 239.059 721.474 236.969 722.79 235.253C724.106 233.538 725.937 232.287 728.014 231.682L786.04 216.159L747.272 177.452C745.449 175.592 744.412 173.104 744.375 170.502C744.376 169.206 744.637 167.923 745.143 166.729C745.649 165.535 746.39 164.455 747.322 163.552L834.818 76.2974C836.049 75.098 837.571 74.239 839.235 73.8051C840.899 73.3711 842.648 73.3771 844.309 73.8224C845.97 74.2677 847.486 75.137 848.709 76.3448C849.931 77.5526 850.818 79.0573 851.281 80.7109L883.546 200.027C884.148 202.546 883.763 205.2 882.469 207.445C881.174 209.69 879.069 211.356 876.585 212.101L823.691 226.203L856.921 259.381L873.942 230.008C874.92 228.329 876.374 226.977 878.121 226.121C879.867 225.265 881.829 224.945 883.757 225.2C885.686 225.455 887.496 226.274 888.959 227.554C890.422 228.834 891.473 230.517 891.98 232.392L902.6 272.063L927.192 286.217C928.404 286.812 929.48 287.65 930.353 288.678C931.227 289.706 931.88 290.902 932.272 292.192C932.663 293.483 932.785 294.84 932.629 296.179C932.474 297.518 932.045 298.811 931.368 299.978C930.691 301.145 929.782 302.16 928.696 302.961C927.609 303.763 926.37 304.332 925.054 304.636C923.738 304.939 922.374 304.969 921.046 304.724C919.718 304.479 918.455 303.964 917.335 303.211L889.236 287.028C887 285.692 885.363 283.549 884.664 281.042L879.125 260.345L867.54 280.332C866.783 281.601 865.749 282.683 864.514 283.496C863.28 284.309 861.877 284.833 860.41 285.028C858.944 285.223 857.453 285.085 856.048 284.623C854.643 284.161 853.36 283.388 852.297 282.361L801.944 232.088L740.107 248.778V275.614V369.971C740.057 372.117 739.326 374.19 738.02 375.895C736.715 377.599 734.902 378.847 732.842 379.458L611.302 411.976V673.69C611.309 674.98 611.06 676.258 610.57 677.452C610.081 678.646 609.36 679.731 608.448 680.646C607.537 681.56 606.454 682.286 605.26 682.781C604.067 683.276 602.788 683.531 601.496 683.531L601.75 683.43ZM767.799 170.502L807.635 210.274L861.951 195.766L836.546 102.271L767.799 170.502Z" fill="#AD8D35"></path><path d="M767.443 369.768C766.149 369.769 764.868 369.514 763.673 369.017C762.479 368.521 761.394 367.794 760.482 366.877L666.279 272.317L571.568 366.877C570.346 368.093 568.824 368.968 567.157 369.413C565.49 369.858 563.734 369.858 562.067 369.413L423.557 332.533C421.19 331.729 419.217 330.056 418.038 327.854C416.86 325.652 416.563 323.086 417.209 320.674C417.855 318.262 419.395 316.185 421.517 314.864C423.639 313.543 426.185 313.077 428.638 313.56L561.66 349.071L659.318 251.568C660.23 250.652 661.315 249.924 662.509 249.428C663.704 248.932 664.985 248.676 666.279 248.677C668.903 248.701 671.415 249.737 673.291 251.568L770.187 348.969L903.412 313.103C904.69 312.669 906.044 312.502 907.389 312.612C908.734 312.721 910.043 313.106 911.233 313.741C912.424 314.376 913.471 315.248 914.31 316.304C915.149 317.36 915.761 318.576 916.11 319.878C916.459 321.18 916.536 322.54 916.337 323.873C916.138 325.206 915.666 326.483 914.952 327.627C914.238 328.771 913.296 329.756 912.185 330.521C911.074 331.286 909.818 331.816 908.493 332.076L770.187 369.413C769.296 369.671 768.371 369.79 767.443 369.768Z" fill="#AD8D35"></path><path d="M642.449 659.688C640.669 659.701 638.917 659.246 637.368 658.369C635.164 657.01 633.562 654.862 632.892 652.363C632.221 649.864 632.532 647.204 633.761 644.926L657.083 604.647C657.951 603.163 659.194 601.932 660.687 601.076C662.18 600.221 663.872 599.77 665.593 599.77C667.315 599.77 669.007 600.221 670.5 601.076C671.993 601.932 673.236 603.163 674.104 604.647L697.935 644.977C699.282 647.224 699.681 649.913 699.042 652.453C698.404 654.993 696.781 657.176 694.53 658.522C692.28 659.867 689.586 660.265 687.042 659.627C684.498 658.99 682.311 657.37 680.964 655.123L665.721 629.251L650.833 655.021C649.95 656.448 648.716 657.626 647.249 658.443C645.781 659.259 644.129 659.688 642.449 659.688Z" fill="#AD8D35"></path><path d="M273.463 291.898C271.683 291.911 269.93 291.456 268.382 290.579C266.177 289.22 264.576 287.072 263.905 284.573C263.235 282.074 263.546 279.414 264.774 277.136L329.253 165.531C330.098 164.006 331.334 162.734 332.834 161.842C334.334 160.951 336.044 160.473 337.789 160.458H466.238C467.589 160.361 468.945 160.543 470.222 160.992C471.499 161.441 472.67 162.149 473.661 163.07C474.652 163.991 475.443 165.106 475.983 166.345C476.524 167.585 476.803 168.922 476.803 170.274C476.803 171.626 476.524 172.963 475.983 174.203C475.443 175.442 474.652 176.557 473.661 177.478C472.67 178.399 471.499 179.107 470.222 179.556C468.945 180.005 467.589 180.187 466.238 180.09H343.632L281.999 286.622C281.18 288.185 279.956 289.499 278.454 290.427C276.952 291.355 275.228 291.863 273.463 291.898Z" fill="#AD8D35"></path><path d="M1049.65 276.679C1047.9 276.664 1046.19 276.186 1044.69 275.295C1043.19 274.404 1041.95 273.131 1041.11 271.607L988.266 180.293H865.152C863.801 180.39 862.445 180.208 861.168 179.759C859.891 179.31 858.72 178.602 857.729 177.681C856.738 176.76 855.948 175.645 855.407 174.406C854.867 173.166 854.587 171.829 854.587 170.477C854.587 169.125 854.867 167.788 855.407 166.548C855.948 165.309 856.738 164.194 857.729 163.273C858.72 162.352 859.891 161.644 861.168 161.195C862.445 160.746 863.801 160.564 865.152 160.661H994.109C995.855 160.676 997.564 161.154 999.064 162.045C1000.56 162.936 1001.8 164.209 1002.65 165.734L1058.54 262.12C1059.37 263.637 1059.78 265.345 1059.74 267.074C1059.7 268.802 1059.21 270.489 1058.3 271.964C1057.4 273.44 1056.13 274.653 1054.61 275.481C1053.09 276.309 1051.38 276.722 1049.65 276.679Z" fill="#AD8D35"></path><path d="M153.55 747.755C152.258 747.755 150.978 747.5 149.785 747.005C148.592 746.51 147.509 745.784 146.597 744.87C145.686 743.955 144.965 742.87 144.475 741.676C143.985 740.482 143.736 739.204 143.743 737.914V709.556L114.73 680.538C113.348 679.169 112.405 677.419 112.022 675.513C111.639 673.607 111.834 671.63 112.58 669.834C113.327 668.039 114.592 666.505 116.215 665.43C117.838 664.355 119.744 663.787 121.691 663.798H155.379L143.235 618.8L104.568 657.659C103.649 658.58 102.556 659.309 101.352 659.805C100.148 660.302 98.8584 660.555 97.5562 660.551C94.9438 660.546 92.4401 659.506 90.5952 657.659L3.20091 569.491C1.99667 568.246 1.14476 566.704 0.731859 565.023C0.31896 563.341 0.359851 561.581 0.850481 559.92C1.34111 558.26 2.26398 556.759 3.52483 555.571C4.78568 554.383 6.33948 553.55 8.02798 553.156L127.382 521.095C129.902 520.428 132.584 520.785 134.84 522.088C137.097 523.39 138.745 525.532 139.424 528.045L153.702 580.855L196.027 538.343C197.563 536.8 199.569 535.809 201.729 535.524C203.889 535.24 206.083 535.678 207.968 536.77L312.892 597.291L401.759 508.666C403.288 507.147 405.275 506.17 407.413 505.886C409.552 505.602 411.724 506.026 413.598 507.094L647.327 641.527C648.46 642.167 649.455 643.025 650.255 644.051C651.054 645.077 651.642 646.25 651.985 647.504C652.327 648.758 652.417 650.068 652.25 651.357C652.083 652.646 651.662 653.889 651.011 655.015C650.36 656.14 649.492 657.126 648.458 657.915C647.423 658.704 646.242 659.281 644.983 659.611C643.724 659.942 642.412 660.02 641.122 659.842C639.833 659.664 638.591 659.232 637.47 658.572L410.346 527.791L321.529 616.517C319.997 618.049 318.001 619.033 315.852 619.317C313.702 619.601 311.519 619.17 309.64 618.09L204.513 557.468L159.444 602.719L177.939 671.052C178.301 672.511 178.335 674.033 178.036 675.507C177.737 676.981 177.114 678.371 176.211 679.575C175.304 680.776 174.129 681.749 172.78 682.418C171.431 683.088 169.944 683.434 168.437 683.43H145.217L160.46 698.649C162.282 700.509 163.319 702.997 163.356 705.599V738.015C163.329 740.599 162.286 743.068 160.451 744.891C158.617 746.713 156.138 747.742 153.55 747.755ZM29.3176 567.716L97.8104 636.809L137.493 596.885L122.86 542.554L29.3176 567.716Z" fill="#AD8D35"></path><path d="M314.62 747.755C312.458 747.753 310.357 747.042 308.641 745.731C306.924 744.42 305.686 742.583 305.118 740.501L289.875 683.43H250.496C249.146 683.527 247.79 683.345 246.513 682.896C245.236 682.446 244.065 681.739 243.074 680.818C242.083 679.897 241.292 678.782 240.751 677.543C240.211 676.303 239.932 674.966 239.932 673.614C239.932 672.262 240.211 670.924 240.751 669.685C241.292 668.445 242.083 667.33 243.074 666.409C244.065 665.488 245.236 664.781 246.513 664.332C247.79 663.882 249.146 663.701 250.496 663.798H297.649C299.81 663.799 301.911 664.511 303.627 665.821C305.344 667.132 306.582 668.97 307.15 671.052L314.873 699.968L322.647 671.052C323.208 668.966 324.444 667.123 326.162 665.811C327.881 664.499 329.985 663.791 332.149 663.798L537.881 664.203L434.837 486.092C433.805 484.202 433.401 482.033 433.684 479.899C433.967 477.766 434.923 475.777 436.412 474.221L457.549 453.067L428.639 460.828C426.548 461.371 424.336 461.214 422.344 460.379C420.352 459.545 418.69 458.081 417.612 456.212L394.138 415.628C393.316 413.449 393.298 411.048 394.089 408.858C394.88 406.667 396.427 404.829 398.452 403.674C400.478 402.519 402.849 402.123 405.141 402.557C407.432 402.991 409.494 404.226 410.956 406.04L430.671 440.08L487.63 424.861C489.718 424.317 491.928 424.474 493.919 425.305C495.91 426.137 497.573 427.598 498.652 429.465C499.731 431.331 500.167 433.5 499.892 435.637C499.617 437.775 498.647 439.763 497.131 441.297L455.466 482.997L563.236 669.327C564.111 670.82 564.572 672.518 564.572 674.248C564.572 675.977 564.111 677.676 563.236 679.169C562.367 680.673 561.125 681.929 559.631 682.817C558.136 683.706 556.438 684.196 554.7 684.242L339.415 683.785L324.172 740.856C323.537 742.88 322.264 744.645 320.543 745.888C318.821 747.132 316.744 747.786 314.62 747.755Z" fill="#AD8D35"></path><path d="M578.072 771.294C576.292 771.306 574.54 770.851 572.991 769.975L339.262 635.44C337.389 634.354 335.926 632.682 335.099 630.684C334.273 628.685 334.129 626.469 334.689 624.381L367.259 503.035L292.009 459.661L262.132 442.667C260.24 441.596 258.756 439.932 257.91 437.931C257.065 435.931 256.906 433.708 257.457 431.608L273.005 373.675L220.061 387.828C218.813 388.165 217.511 388.253 216.229 388.085C214.947 387.918 213.711 387.5 212.592 386.854C211.473 386.208 210.493 385.347 209.708 384.322C208.923 383.296 208.349 382.126 208.019 380.878L176.364 261.308C175.941 259.647 175.958 257.904 176.413 256.251C176.869 254.597 177.747 253.091 178.961 251.878C180.175 250.666 181.684 249.79 183.34 249.335C184.996 248.881 186.741 248.863 188.406 249.285L308.065 281.042C310.549 281.787 312.654 283.453 313.949 285.698C315.243 287.943 315.628 290.597 315.026 293.116L300.85 345.875L346.224 333.75L329.253 304.327C328.286 302.643 327.84 300.71 327.97 298.773C328.1 296.836 328.802 294.981 329.986 293.441C331.17 291.901 332.784 290.745 334.624 290.118C336.465 289.492 338.45 289.423 340.33 289.92L380.063 300.573L404.605 286.42C405.725 285.667 406.988 285.152 408.316 284.907C409.644 284.662 411.009 284.692 412.324 284.995C413.64 285.298 414.88 285.868 415.966 286.669C417.052 287.47 417.961 288.486 418.638 289.653C419.315 290.819 419.744 292.112 419.9 293.452C420.055 294.791 419.933 296.148 419.542 297.438C419.15 298.729 418.497 299.925 417.624 300.953C416.75 301.981 415.674 302.818 414.462 303.414L386.364 319.597C384.097 320.878 381.423 321.242 378.895 320.611L358.621 314.727L370.155 334.714C370.907 336.022 371.348 337.484 371.445 338.988C371.541 340.493 371.29 341.999 370.71 343.392C370.131 344.784 369.239 346.024 368.103 347.018C366.967 348.011 365.618 348.731 364.16 349.121L295.413 367.486L278.899 429.071L302.272 442.312L384.077 489.49C385.957 490.57 387.425 492.24 388.253 494.241C389.08 496.242 389.22 498.461 388.65 500.549L356.132 621.844L583.204 752.625C585.095 753.715 586.57 755.4 587.398 757.417C588.226 759.434 588.36 761.668 587.778 763.769C587.197 765.87 585.934 767.719 584.186 769.026C582.439 770.333 580.306 771.023 578.123 770.989L578.072 771.294ZM199.991 272.621L224.786 366.319L279.153 351.759L293.736 297.529L199.991 272.621Z" fill="#AD8D35"></path><path d="M186.221 747.755C184.274 747.751 182.372 747.172 180.754 746.091C179.136 745.009 177.876 743.473 177.131 741.677C176.387 739.881 176.191 737.905 176.57 735.998C176.949 734.092 177.885 732.34 179.26 730.963L276.461 633.715L240.893 500.448C240.545 499.204 240.452 497.903 240.617 496.622C240.783 495.34 241.205 494.106 241.859 492.991C243.197 490.758 245.343 489.123 247.854 488.425L380.978 453.219L416.546 320.053C416.807 318.731 417.337 317.477 418.103 316.367C418.87 315.258 419.856 314.318 421.002 313.605C422.147 312.892 423.427 312.421 424.762 312.223C426.097 312.024 427.459 312.101 428.763 312.449C430.067 312.797 431.285 313.409 432.343 314.246C433.4 315.084 434.274 316.129 434.91 317.318C435.547 318.506 435.931 319.813 436.041 321.156C436.151 322.499 435.983 323.85 435.549 325.126L398.609 463.77C398.129 465.429 397.233 466.937 396.006 468.154C394.779 469.37 393.262 470.253 391.597 470.72L262.081 504.912L296.937 634.324C297.388 635.988 297.39 637.742 296.944 639.408C296.498 641.074 295.619 642.592 294.397 643.81L193.182 745.269C191.273 746.968 188.776 747.859 186.221 747.755Z" fill="#AD8D35"></path><path d="M578.021 724.216C576.276 724.201 574.566 723.723 573.067 722.832C571.567 721.941 570.331 720.668 569.485 719.143L546.214 678.813C545.351 677.332 544.893 675.651 544.885 673.938C544.877 672.225 545.32 670.539 546.168 669.05C547.017 667.561 548.242 666.321 549.721 665.452C551.2 664.584 552.882 664.118 554.598 664.102L601.496 663.645C602.846 663.548 604.203 663.73 605.48 664.179C606.757 664.629 607.927 665.336 608.919 666.257C609.91 667.178 610.7 668.293 611.241 669.533C611.781 670.772 612.061 672.109 612.061 673.461C612.061 674.813 611.781 676.151 611.241 677.39C610.7 678.63 609.91 679.745 608.919 680.666C607.927 681.587 606.757 682.294 605.48 682.743C604.203 683.193 602.846 683.375 601.496 683.278L571.467 683.582L586.354 709.302C587.661 711.562 588.016 714.248 587.339 716.769C586.663 719.291 585.011 721.44 582.747 722.745C581.317 723.617 579.694 724.122 578.021 724.216Z" fill="#AD8D35"></path><path d="M97.7086 548.946C96.4166 548.946 95.1373 548.691 93.9442 548.195C92.7511 547.7 91.6677 546.975 90.7565 546.06C89.8452 545.146 89.1239 544.06 88.6341 542.866C88.1443 541.673 87.8955 540.394 87.9022 539.104V474.627C87.9068 472.475 88.621 470.385 89.9343 468.68C91.2476 466.974 93.0869 465.748 95.1681 465.191L171.384 444.899C172.635 444.566 173.94 444.482 175.223 444.652C176.507 444.823 177.744 445.244 178.865 445.891C179.985 446.539 180.967 447.401 181.754 448.427C182.541 449.454 183.118 450.625 183.452 451.874C183.785 453.124 183.869 454.426 183.699 455.707C183.528 456.989 183.106 458.224 182.458 459.343C181.809 460.462 180.946 461.442 179.918 462.228C178.889 463.014 177.716 463.59 176.465 463.923L107.617 482.135V539.053C107.624 540.354 107.372 541.644 106.876 542.847C106.381 544.05 105.651 545.143 104.73 546.063C103.808 546.983 102.713 547.711 101.508 548.206C100.303 548.701 99.0117 548.952 97.7086 548.946Z" fill="#AD8D35"></path><path d="M173.772 464.278C171.611 464.276 169.51 463.565 167.793 462.254C166.077 460.943 164.839 459.105 164.271 457.023L143.693 380.929C143.123 378.84 143.263 376.622 144.09 374.621C144.918 372.62 146.386 370.949 148.265 369.87L204.157 337.504C205.278 336.752 206.541 336.237 207.869 335.992C209.197 335.747 210.561 335.777 211.877 336.08C213.192 336.383 214.432 336.953 215.518 337.754C216.604 338.555 217.514 339.571 218.19 340.737C218.867 341.904 219.297 343.197 219.452 344.537C219.608 345.876 219.486 347.233 219.094 348.523C218.703 349.813 218.05 351.01 217.176 352.038C216.302 353.065 215.226 353.903 214.014 354.499L164.423 383.11L183.274 451.697C183.612 452.946 183.7 454.249 183.533 455.532C183.367 456.816 182.948 458.054 182.301 459.175C181.655 460.296 180.793 461.279 179.765 462.068C178.738 462.857 177.565 463.435 176.313 463.77C175.49 464.043 174.637 464.214 173.772 464.278Z" fill="#AD8D35"></path><path d="M97.7597 484.468C95.181 484.482 92.7018 483.475 90.8642 481.669C89.0266 479.863 87.9801 477.404 87.9533 474.83C87.9533 474.525 87.5468 448.755 87.9533 424.81C77.6366 427.124 66.8322 425.703 57.4669 420.802C42.7318 413.092 33.6874 397.67 32.5696 378.545C32.4548 376.633 32.904 374.731 33.8612 373.072C34.8185 371.413 36.2421 370.07 37.9556 369.21C54.9264 360.688 72.6084 360.84 86.4797 369.616C95.4997 375.416 102.19 384.196 105.381 394.423C126.01 382.299 148.57 369.768 148.875 369.616C150.003 368.99 151.243 368.592 152.525 368.444C153.807 368.296 155.105 368.402 156.346 368.755C157.587 369.109 158.746 369.703 159.757 370.503C160.768 371.304 161.611 372.295 162.238 373.421C162.866 374.547 163.265 375.785 163.412 377.065C163.56 378.345 163.454 379.641 163.1 380.88C162.747 382.119 162.152 383.276 161.35 384.285C160.548 385.295 159.555 386.137 158.428 386.763C158.123 386.763 129.618 402.793 107.617 415.983C107.21 441.348 107.617 474.17 107.617 474.525C107.665 475.832 107.449 477.135 106.984 478.358C106.519 479.58 105.814 480.697 104.909 481.643C104.004 482.588 102.919 483.344 101.717 483.864C100.516 484.384 99.2218 484.658 97.9121 484.671L97.7597 484.468ZM52.9955 384.176C53.6656 388.185 55.2276 391.994 57.5666 395.321C59.9056 398.649 62.9621 401.41 66.5112 403.402C69.7424 405.056 73.2882 406.005 76.9144 406.189C80.5406 406.373 84.1645 405.786 87.5467 404.468C87.0455 400.64 85.6762 396.978 83.543 393.759C81.4098 390.541 78.5689 387.85 75.2368 385.893C71.9047 383.936 68.1693 382.764 64.315 382.467C60.4608 382.169 56.5894 382.754 52.9955 384.176Z" fill="#AD8D35"></path><path d="M74.3359 859.259C72.5907 859.243 70.8809 858.766 69.3811 857.874C67.8813 856.983 66.6454 855.71 65.7998 854.186L1.32113 742.581C0.484761 741.075 0.0458984 739.381 0.0458984 737.66C0.0458984 735.938 0.484761 734.245 1.32113 732.739L65.5965 621.692C66.8969 619.438 69.0408 617.793 71.5565 617.117C74.0721 616.442 76.7534 616.792 79.0106 618.09C81.2678 619.388 82.9159 621.529 83.5925 624.04C84.269 626.552 83.9185 629.229 82.6181 631.483L21.2389 737.914L82.8722 844.446C84.1008 846.723 84.4116 849.383 83.741 851.882C83.0705 854.381 81.4691 856.53 79.2646 857.889C77.7656 858.758 76.0689 859.229 74.3359 859.259Z" fill="#AD8D35"></path><path d="M273.463 291.898C271.683 291.911 269.93 291.456 268.382 290.579C266.177 289.22 264.576 287.072 263.905 284.573C263.235 282.074 263.546 279.414 264.774 277.136L329.253 165.531C330.098 164.006 331.334 162.734 332.834 161.842C334.334 160.951 336.044 160.473 337.789 160.458H449.115C450.466 160.361 451.822 160.543 453.099 160.992C454.376 161.441 455.547 162.149 456.538 163.07C457.529 163.991 458.319 165.106 458.86 166.345C459.401 167.585 459.68 168.922 459.68 170.274C459.68 171.626 459.401 172.963 458.86 174.203C458.319 175.442 457.529 176.557 456.538 177.478C455.547 178.399 454.376 179.107 453.099 179.556C451.822 180.005 450.466 180.187 449.115 180.09H343.632L281.999 286.622C281.18 288.185 279.956 289.499 278.454 290.427C276.952 291.355 275.228 291.863 273.463 291.898Z" fill="#AD8D35"></path><path d="M186.17 1226.95C183.546 1226.92 181.034 1225.89 179.158 1224.06C177.965 1222.82 177.106 1221.3 176.662 1219.64C176.217 1217.98 176.202 1216.24 176.618 1214.57L208.527 1095.35C208.857 1094.11 209.431 1092.94 210.216 1091.91C211.001 1090.89 211.981 1090.03 213.1 1089.38C214.219 1088.73 215.455 1088.31 216.737 1088.15C218.019 1087.98 219.321 1088.07 220.569 1088.4L273.513 1102.46L257.813 1044.57C257.243 1042.49 257.383 1040.27 258.211 1038.27C259.038 1036.27 260.506 1034.59 262.386 1033.52L367.513 972.893L335.045 851.751C334.497 849.669 334.647 847.465 335.473 845.477C336.299 843.489 337.755 841.826 339.618 840.742L573.347 705.852C574.468 705.192 575.71 704.761 577 704.582C578.289 704.404 579.601 704.483 580.86 704.813C582.119 705.144 583.3 705.721 584.335 706.51C585.369 707.299 586.237 708.284 586.888 709.41C587.539 710.536 587.96 711.779 588.127 713.068C588.294 714.357 588.204 715.666 587.862 716.92C587.519 718.174 586.931 719.348 586.132 720.374C585.332 721.4 584.337 722.258 583.204 722.897L356.284 853.932L388.752 975.125C389.296 977.212 389.138 979.42 388.303 981.409C387.467 983.398 386.001 985.058 384.128 986.134L278.747 1046.76L295.464 1108.29L363.956 1126.4C365.415 1126.79 366.764 1127.51 367.9 1128.5C369.036 1129.5 369.928 1130.74 370.507 1132.13C371.086 1133.52 371.338 1135.03 371.241 1136.53C371.145 1138.04 370.704 1139.5 369.952 1140.81L358.621 1160.85L378.945 1155.32C381.473 1154.69 384.147 1155.05 386.414 1156.33L414.513 1172.51C415.724 1173.11 416.8 1173.95 417.674 1174.98C418.548 1176 419.201 1177.2 419.593 1178.49C419.984 1179.78 420.106 1181.14 419.951 1182.48C419.795 1183.82 419.366 1185.11 418.689 1186.28C418.012 1187.44 417.102 1188.46 416.016 1189.26C414.93 1190.06 413.691 1190.63 412.375 1190.93C411.059 1191.24 409.695 1191.27 408.367 1191.02C407.039 1190.78 405.776 1190.26 404.656 1189.51L380.114 1175.36L340.38 1186.01C338.5 1186.51 336.515 1186.44 334.675 1185.81C332.834 1185.18 331.22 1184.03 330.036 1182.49C328.852 1180.95 328.151 1179.09 328.02 1177.16C327.89 1175.22 328.336 1173.29 329.303 1171.6L346.274 1142.18L301.205 1130.21L315.585 1183.12C316.185 1185.64 315.793 1188.3 314.488 1190.55C313.184 1192.79 311.067 1194.46 308.573 1195.19L188.457 1226.64C187.707 1226.83 186.941 1226.93 186.17 1226.95ZM224.989 1109.91L199.99 1203.36L294.193 1178.65L279.458 1124.37L224.989 1109.91Z" fill="#AD8D35"></path><path d="M402.42 1074.91C400.635 1074.96 398.873 1074.5 397.339 1073.59C395.214 1072.23 393.699 1070.11 393.111 1067.66C392.524 1065.21 392.91 1062.62 394.189 1060.45L417.663 1019.87C418.74 1018 420.403 1016.54 422.395 1015.7C424.387 1014.87 426.598 1014.71 428.689 1015.25L457.651 1023.01L436.463 1001.86C434.922 1000.33 433.935 998.336 433.659 996.186C433.383 994.036 433.834 991.855 434.939 989.989L538.135 812.435H331.895C329.731 812.442 327.626 811.734 325.908 810.422C324.189 809.11 322.954 807.267 322.393 805.181L314.619 776.367L306.896 805.181C306.242 807.118 305 808.803 303.343 810.003C301.686 811.203 299.695 811.858 297.648 811.877H250.7C249.349 811.974 247.993 811.792 246.716 811.343C245.439 810.894 244.268 810.186 243.277 809.265C242.285 808.344 241.495 807.229 240.955 805.99C240.414 804.75 240.135 803.413 240.135 802.061C240.135 800.709 240.414 799.372 240.955 798.132C241.495 796.893 242.285 795.778 243.277 794.857C244.268 793.936 245.439 793.229 246.716 792.779C247.993 792.33 249.349 792.148 250.7 792.245H290.078L305.321 735.377C305.933 733.32 307.182 731.51 308.89 730.206C310.597 728.903 312.674 728.173 314.822 728.123C316.997 728.195 319.085 728.986 320.759 730.373C322.433 731.76 323.598 733.663 324.07 735.783L339.313 792.651H554.852C556.582 792.651 558.282 793.106 559.78 793.969C561.279 794.833 562.523 796.076 563.388 797.572C564.253 799.068 564.709 800.765 564.709 802.492C564.709 804.22 564.253 805.917 563.388 807.413L455.364 993.287L497.334 1035.09C498.85 1036.62 499.82 1038.61 500.095 1040.75C500.37 1042.89 499.935 1045.05 498.856 1046.92C497.777 1048.79 496.114 1050.25 494.122 1051.08C492.131 1051.91 489.921 1052.07 487.833 1051.52L430.671 1036.31L410.956 1070.34C410.047 1071.78 408.784 1072.95 407.288 1073.75C405.793 1074.55 404.116 1074.95 402.42 1074.91Z" fill="#AD8D35"></path><path d="M408.873 970.255C406.267 970.218 403.775 969.183 401.912 967.364L312.892 878.536L237.641 921.91L207.968 939.259C206.089 940.358 203.898 940.805 201.738 940.53C199.578 940.254 197.57 939.272 196.027 937.738L153.55 895.328L139.373 948.188C138.675 950.695 137.037 952.838 134.801 954.174C133.675 954.828 132.43 955.25 131.138 955.415C129.847 955.581 128.535 955.486 127.281 955.138L8.02805 922.722C6.36623 922.266 4.85325 921.382 3.63996 920.16C2.42667 918.938 1.55554 917.42 1.11339 915.757C0.671239 914.094 0.673495 912.344 1.12006 910.682C1.56662 909.02 2.44188 907.504 3.65842 906.285L91.0017 818.726C92.8728 816.925 95.364 815.908 97.9629 815.885C99.2533 815.878 100.532 816.125 101.727 816.613C102.922 817.1 104.008 817.818 104.924 818.726L143.642 857.382L155.379 811.877H121.386C119.439 811.888 117.533 811.32 115.91 810.244C114.288 809.169 113.022 807.636 112.276 805.841C111.529 804.045 111.335 802.068 111.717 800.162C112.1 798.255 113.043 796.506 114.425 795.137L143.54 766.119V737.761C143.533 736.471 143.782 735.193 144.272 733.999C144.762 732.805 145.483 731.72 146.394 730.805C147.305 729.891 148.389 729.165 149.582 728.67C150.775 728.175 152.054 727.92 153.346 727.92C155.961 727.92 158.468 728.957 160.317 730.802C162.165 732.648 163.204 735.151 163.204 737.761V770.178C163.167 772.779 162.13 775.267 160.307 777.127L145.064 792.346H168.132C169.639 792.342 171.126 792.689 172.475 793.358C173.824 794.027 174.999 795.001 175.906 796.202C176.809 797.406 177.432 798.795 177.731 800.269C178.03 801.743 177.997 803.265 177.634 804.724L159.19 873.362L204.309 918.41L227.479 904.865L309.335 857.686C311.214 856.606 313.397 856.175 315.547 856.459C317.696 856.744 319.692 857.728 321.225 859.259L410.194 948.086L637.47 816.95C639.712 815.848 642.29 815.637 644.682 816.361C647.074 817.084 649.101 818.688 650.354 820.848C651.606 823.007 651.991 825.561 651.429 827.992C650.867 830.424 649.401 832.552 647.327 833.945L413.598 968.733C412.173 969.623 410.55 970.146 408.873 970.255ZM29.3177 908.264L122.962 933.628L137.544 879.348L97.7596 839.626L29.3177 908.264Z" fill="#AD8D35"></path><path d="M426.098 1162.62C423.943 1162.57 421.86 1161.83 420.152 1160.52C418.444 1159.2 417.199 1157.38 416.596 1155.32L381.029 1022.61L247.549 987.098C245.034 986.405 242.896 984.745 241.604 982.481C240.948 981.367 240.525 980.132 240.359 978.851C240.193 977.569 240.288 976.268 240.639 975.024L276.46 842.315L178.752 744.863C176.905 743.027 175.866 740.533 175.861 737.931C175.856 735.329 176.887 732.832 178.726 730.989C180.566 729.146 183.063 728.107 185.669 728.103C188.275 728.098 190.777 729.127 192.623 730.963L294.244 832.423C295.446 833.665 296.309 835.193 296.754 836.862C297.199 838.531 297.209 840.286 296.785 841.96L262.081 970.509L391.495 1005.11C393.164 1005.55 394.686 1006.43 395.907 1007.65C397.129 1008.87 398.008 1010.39 398.457 1012.06L435.65 1150.24C435.988 1151.49 436.078 1152.78 435.914 1154.06C435.75 1155.34 435.335 1156.57 434.693 1157.69C434.051 1158.8 433.195 1159.78 432.173 1160.57C431.152 1161.35 429.985 1161.93 428.74 1162.27C427.881 1162.51 426.991 1162.63 426.098 1162.62Z" fill="#AD8D35"></path><path d="M601.597 811.877H554.953C553.239 811.877 551.555 811.429 550.069 810.577C548.583 809.724 547.346 808.498 546.483 807.02C545.619 805.542 545.158 803.863 545.147 802.152C545.135 800.441 545.574 798.757 546.417 797.267L569.485 756.683C570.765 754.416 572.895 752.75 575.406 752.051C577.917 751.351 580.603 751.677 582.874 752.955C585.144 754.233 586.813 756.359 587.514 758.866C588.214 761.373 587.888 764.055 586.608 766.322L572.026 792.397H601.801C603.151 792.3 604.507 792.482 605.784 792.931C607.062 793.381 608.232 794.088 609.223 795.009C610.215 795.93 611.005 797.045 611.546 798.284C612.086 799.524 612.365 800.861 612.365 802.213C612.365 803.565 612.086 804.903 611.546 806.142C611.005 807.382 610.215 808.497 609.223 809.418C608.232 810.339 607.062 811.046 605.784 811.495C604.507 811.945 603.151 812.126 601.801 812.029L601.597 811.877Z" fill="#AD8D35"></path><path d="M209.441 1139.74C207.658 1139.79 205.897 1139.33 204.36 1138.42L148.469 1106.11C146.589 1105.03 145.121 1103.36 144.293 1101.36C143.466 1099.36 143.326 1097.14 143.896 1095.05L164.22 1019.26C164.481 1017.94 165.011 1016.68 165.778 1015.57C166.544 1014.47 167.531 1013.52 168.676 1012.81C169.822 1012.1 171.102 1011.63 172.437 1011.43C173.772 1011.23 175.133 1011.31 176.437 1011.66C177.741 1012 178.96 1012.62 180.017 1013.45C181.075 1014.29 181.949 1015.34 182.585 1016.52C183.221 1017.71 183.606 1019.02 183.716 1020.36C183.826 1021.71 183.658 1023.06 183.223 1024.33L165.033 1092.92L214.37 1121.43C216.235 1122.53 217.685 1124.21 218.496 1126.22C219.306 1128.23 219.432 1130.44 218.854 1132.53C218.275 1134.61 217.025 1136.45 215.296 1137.75C213.567 1139.06 211.456 1139.76 209.289 1139.74H209.441Z" fill="#AD8D35"></path><path d="M174.026 1031.64C173.167 1031.64 172.311 1031.52 171.486 1031.28L95.2699 1010.99C93.2016 1010.38 91.3825 1009.12 90.0762 1007.41C88.7698 1005.69 88.044 1003.61 88.0039 1001.45V936.824C88.1827 934.343 89.2962 932.021 91.1203 930.326C92.9445 928.631 95.3439 927.689 97.8357 927.689C100.328 927.689 102.727 928.631 104.551 930.326C106.375 932.021 107.489 934.343 107.668 936.824V993.997L176.618 1012.31C178.91 1012.94 180.896 1014.38 182.21 1016.36C183.524 1018.34 184.078 1020.72 183.768 1023.08C183.459 1025.43 182.308 1027.59 180.527 1029.17C178.746 1030.74 176.455 1031.62 174.077 1031.64H174.026Z" fill="#AD8D35"></path><path d="M62.9034 1112.4C54.0511 1112.28 45.35 1110.09 37.4981 1106.01C35.8131 1105.11 34.4145 1103.76 33.462 1102.11C32.5095 1100.46 32.0416 1098.58 32.1122 1096.67C32.1919 1088.17 34.5109 1079.83 38.8363 1072.5C43.1617 1065.18 49.3414 1059.11 56.7553 1054.92C66.3072 1050.03 77.2794 1048.65 87.7498 1051.02C87.7498 1027.12 87.7498 1001.3 87.7498 1001C87.7767 998.423 88.8234 995.964 90.661 994.158C92.4986 992.351 94.9776 991.345 97.5563 991.359C98.866 991.371 100.16 991.646 101.362 992.166C102.563 992.686 103.649 993.441 104.553 994.387C105.458 995.333 106.163 996.45 106.628 997.672C107.094 998.895 107.309 1000.2 107.261 1001.5C107.261 1001.86 106.753 1034.48 107.261 1060.05C129.262 1073.24 157.767 1089.06 158.072 1089.27C159.445 1089.71 160.703 1090.46 161.756 1091.44C162.808 1092.43 163.629 1093.64 164.16 1094.98C164.691 1096.32 164.918 1097.76 164.826 1099.2C164.734 1100.64 164.325 1102.04 163.628 1103.3C162.931 1104.57 161.963 1105.66 160.793 1106.51C159.623 1107.35 158.281 1107.93 156.862 1108.2C155.443 1108.47 153.982 1108.42 152.584 1108.06C151.185 1107.7 149.884 1107.03 148.773 1106.11C148.469 1106.11 125.959 1093.43 105.28 1081.3C102.486 1090.33 96.857 1098.21 89.2251 1103.8C81.5932 1109.38 72.364 1112.36 62.9034 1112.3V1112.4ZM52.7413 1091.09C56.5488 1092.53 60.6302 1093.09 64.6843 1092.74C68.7384 1092.39 72.6618 1091.13 76.165 1089.06C79.2121 1087.08 81.8056 1084.48 83.7758 1081.43C85.7459 1078.38 87.0483 1074.95 87.5974 1071.36C84.0279 1069.88 80.1681 1069.24 76.3117 1069.48C72.4554 1069.71 68.7042 1070.83 65.3433 1072.73C61.9824 1074.63 59.1003 1077.27 56.9166 1080.46C54.7329 1083.64 53.3049 1087.28 52.7413 1091.09Z" fill="#AD8D35"></path><path d="M466.899 1315.06H337.941C336.202 1315.02 334.505 1314.53 333.01 1313.64C331.515 1312.75 330.274 1311.5 329.405 1309.99L265.18 1198.89C263.901 1196.64 263.567 1193.96 264.251 1191.46C264.934 1188.96 266.581 1186.82 268.832 1185.53C271.083 1184.23 273.756 1183.87 276.269 1184.53C278.783 1185.19 280.933 1186.82 282.253 1189.05L343.632 1295.23H466.899C468.249 1295.13 469.605 1295.31 470.882 1295.76C472.159 1296.21 473.33 1296.92 474.321 1297.84C475.313 1298.76 476.103 1299.88 476.644 1301.12C477.184 1302.36 477.463 1303.69 477.463 1305.05C477.463 1306.4 477.184 1307.73 476.644 1308.97C476.103 1310.21 475.313 1311.33 474.321 1312.25C473.33 1313.17 472.159 1313.88 470.882 1314.33C469.605 1314.78 468.249 1314.96 466.899 1314.86V1315.06Z" fill="#AD8D35"></path><path d="M74.3359 859.259C72.5907 859.243 70.8809 858.766 69.3811 857.874C67.8813 856.983 66.6454 855.71 65.7998 854.186L1.32113 742.581C0.484761 741.075 0.0458984 739.382 0.0458984 737.66C0.0458984 735.938 0.484761 734.245 1.32113 732.739L57.2128 636.353C58.5132 634.099 60.6571 632.454 63.1727 631.778C65.6884 631.103 68.3697 631.453 70.6269 632.751C72.8841 634.049 74.5322 636.19 75.2088 638.701C75.8853 641.213 75.5348 643.89 74.2344 646.143L21.4422 737.457L83.0754 843.989C84.304 846.267 84.6147 848.927 83.9442 851.426C83.2736 853.925 81.6724 856.073 79.4679 857.433C77.9556 858.496 76.1812 859.128 74.3359 859.259Z" fill="#AD8D35"></path><path d="M841.78 1402.27C840.486 1402.27 839.204 1402.01 838.009 1401.52C836.815 1401.02 835.73 1400.29 834.818 1399.38L747.323 1312.22C746.404 1311.31 745.675 1310.23 745.177 1309.04C744.68 1307.85 744.423 1306.57 744.423 1305.27C744.423 1303.98 744.68 1302.7 745.177 1301.51C745.675 1300.32 746.404 1299.23 747.323 1298.32L785.989 1259.57L727.913 1244.35C725.814 1243.8 723.957 1242.57 722.633 1240.85C721.309 1239.13 720.593 1237.03 720.596 1234.86V1113.52L599.311 1081C597.217 1080.44 595.364 1079.21 594.042 1077.49C592.719 1075.78 592 1073.68 591.995 1071.51V802.239C591.988 800.949 592.237 799.67 592.726 798.476C593.216 797.283 593.938 796.197 594.849 795.283C595.76 794.368 596.843 793.642 598.036 793.147C599.229 792.652 600.509 792.397 601.801 792.397C604.415 792.397 606.923 793.434 608.771 795.28C610.62 797.125 611.658 799.629 611.658 802.239V1063.95L732.994 1096.47C735.079 1097.04 736.92 1098.27 738.233 1099.99C739.546 1101.7 740.258 1103.8 740.26 1105.96V1227.15L802.046 1243.49L852.094 1193.36C853.157 1192.34 854.44 1191.56 855.845 1191.1C857.25 1190.64 858.741 1190.5 860.207 1190.7C861.673 1190.89 863.077 1191.42 864.311 1192.23C865.546 1193.04 866.58 1194.12 867.337 1195.39L878.871 1215.38L884.46 1194.68C884.784 1193.43 885.355 1192.26 886.141 1191.23C886.926 1190.2 887.91 1189.34 889.033 1188.7L917.132 1172.51C918.252 1171.76 919.515 1171.25 920.843 1171C922.171 1170.76 923.535 1170.79 924.851 1171.09C926.167 1171.39 927.406 1171.96 928.493 1172.76C929.579 1173.57 930.488 1174.58 931.165 1175.75C931.842 1176.91 932.271 1178.21 932.426 1179.55C932.582 1180.89 932.46 1182.24 932.069 1183.53C931.677 1184.82 931.024 1186.02 930.15 1187.05C929.276 1188.08 928.2 1188.91 926.989 1189.51L902.397 1203.66L891.726 1243.33C891.231 1245.21 890.188 1246.9 888.729 1248.18C887.27 1249.47 885.462 1250.29 883.534 1250.55C881.606 1250.8 879.645 1250.48 877.901 1249.62C876.157 1248.76 874.708 1247.4 873.739 1245.72L856.718 1216.34L823.792 1249.32L876.89 1263.37C879.422 1264.06 881.576 1265.72 882.882 1268C884.187 1270.27 884.535 1272.97 883.851 1275.5L851.484 1395.27C851.042 1396.93 850.164 1398.45 848.941 1399.66C847.718 1400.87 846.193 1401.74 844.523 1402.17C843.62 1402.35 842.694 1402.39 841.78 1402.27ZM768.155 1305.22L836.749 1373.56L862.154 1279.81L807.686 1265.4L768.155 1305.22Z" fill="#AD8D35"></path><path d="M514 1139.24C512.215 1139.29 510.453 1138.83 508.919 1137.92C507.795 1137.28 506.808 1136.43 506.017 1135.41C505.226 1134.39 504.646 1133.22 504.31 1131.97C503.974 1130.73 503.89 1129.43 504.062 1128.15C504.234 1126.87 504.658 1125.64 505.311 1124.52L524.975 1090.43L483.31 1048.84C481.794 1047.3 480.824 1045.31 480.549 1043.18C480.275 1041.04 480.71 1038.87 481.789 1037C482.868 1035.14 484.531 1033.68 486.522 1032.84C488.513 1032.01 490.723 1031.86 492.812 1032.4L549.771 1047.62L657.591 861.237C658.424 859.713 659.65 858.44 661.142 857.548C662.634 856.656 664.337 856.178 666.076 856.164C667.824 856.169 669.538 856.642 671.039 857.535C672.541 858.427 673.775 859.706 674.612 861.237L781.873 1047.57L838.984 1032.35C841.073 1031.8 843.283 1031.96 845.274 1032.79C847.266 1033.62 848.928 1035.09 850.007 1036.95C851.086 1038.82 851.522 1040.99 851.247 1043.12C850.972 1045.26 850.002 1047.25 848.486 1048.78L806.669 1090.54L826.333 1124.57C827.087 1125.69 827.602 1126.95 827.848 1128.28C828.093 1129.61 828.063 1130.97 827.759 1132.28C827.456 1133.6 826.885 1134.83 826.083 1135.92C825.28 1137 824.263 1137.91 823.095 1138.59C821.926 1139.26 820.631 1139.69 819.289 1139.85C817.948 1140 816.589 1139.88 815.296 1139.49C814.004 1139.1 812.806 1138.45 811.776 1137.57C810.747 1136.7 809.908 1135.63 809.311 1134.42L785.837 1093.83C784.755 1091.96 784.323 1089.78 784.608 1087.63C784.893 1085.48 785.878 1083.49 787.412 1081.96L808.6 1060.81L779.638 1068.57C777.54 1069.14 775.311 1069 773.304 1068.16C771.297 1067.33 769.628 1065.84 768.561 1063.95L666.076 885.892L563.083 1064C562.002 1065.88 560.329 1067.35 558.324 1068.17C556.32 1069 554.098 1069.14 552.006 1068.57L523.095 1060.86L544.232 1081.96C545.766 1083.49 546.751 1085.48 547.036 1087.63C547.321 1089.78 546.889 1091.96 545.807 1093.83L522.333 1134.42C521.472 1135.86 520.255 1137.07 518.796 1137.91C517.337 1138.75 515.686 1139.21 514 1139.24Z" fill="#AD8D35"></path><path d="M490.271 1402.27C489.412 1402.27 488.556 1402.15 487.731 1401.91C486.078 1401.46 484.571 1400.59 483.359 1399.38C482.148 1398.17 481.273 1396.67 480.821 1395.01L448.556 1275.7C448.205 1274.45 448.11 1273.15 448.276 1271.87C448.442 1270.59 448.866 1269.36 449.522 1268.24C450.813 1265.98 452.951 1264.32 455.466 1263.62L508.36 1249.52L475.13 1216.34L458.109 1245.72C457.131 1247.4 455.677 1248.75 453.93 1249.6C452.184 1250.46 450.222 1250.78 448.294 1250.53C446.365 1250.27 444.555 1249.45 443.092 1248.17C441.629 1246.89 440.578 1245.21 440.071 1243.33L429.451 1203.71L404.859 1189.51C403.647 1188.91 402.571 1188.08 401.697 1187.05C400.824 1186.02 400.171 1184.82 399.779 1183.53C399.388 1182.24 399.266 1180.89 399.421 1179.55C399.577 1178.21 400.006 1176.91 400.683 1175.75C401.36 1174.58 402.269 1173.57 403.355 1172.76C404.442 1171.96 405.681 1171.39 406.997 1171.09C408.313 1170.79 409.677 1170.76 411.005 1171C412.333 1171.25 413.596 1171.76 414.716 1172.51L442.815 1188.7C443.938 1189.34 444.922 1190.2 445.707 1191.23C446.492 1192.26 447.064 1193.43 447.387 1194.68L452.926 1215.38L464.511 1195.39C465.268 1194.12 466.302 1193.04 467.537 1192.23C468.771 1191.42 470.174 1190.89 471.641 1190.7C473.107 1190.5 474.598 1190.64 476.003 1191.1C477.408 1191.56 478.691 1192.34 479.754 1193.36L530.107 1243.64L591.74 1227.15V1200.31V1106.11C591.791 1103.96 592.522 1101.89 593.827 1100.19C595.133 1098.48 596.946 1097.23 599.006 1096.62L720.545 1064.11V802.391C720.538 801.101 720.787 799.822 721.277 798.628C721.767 797.435 722.488 796.349 723.4 795.435C724.311 794.52 725.394 793.795 726.587 793.299C727.78 792.804 729.06 792.549 730.352 792.549C732.966 792.549 735.473 793.586 737.322 795.432C739.171 797.277 740.209 799.781 740.209 802.391V1071.66C740.215 1073.82 739.507 1075.93 738.192 1077.64C736.878 1079.36 735.033 1080.59 732.943 1081.15L611.404 1113.67V1200.42V1234.76C611.422 1236.93 610.718 1239.04 609.403 1240.77C608.088 1242.49 606.236 1243.74 604.138 1244.3L546.621 1259.67L585.389 1298.37C587.211 1300.23 588.248 1302.72 588.285 1305.32C588.285 1306.62 588.024 1307.9 587.517 1309.1C587.011 1310.29 586.27 1311.37 585.338 1312.27L497.487 1399.43C495.553 1401.29 492.958 1402.31 490.271 1402.27ZM469.947 1280.06L495.353 1373.56L564.201 1305.27L524.366 1265.55L469.947 1280.06Z" fill="#AD8D35"></path><path d="M665.771 1227.25C663.159 1227.25 660.655 1226.21 658.81 1224.36L561.864 1126.86L428.638 1162.72C427.361 1163.16 426.007 1163.32 424.662 1163.22C423.316 1163.11 422.008 1162.72 420.817 1162.09C419.627 1161.45 418.58 1160.58 417.741 1159.52C416.902 1158.47 416.289 1157.25 415.941 1155.95C415.592 1154.65 415.515 1153.29 415.714 1151.95C415.913 1150.62 416.384 1149.34 417.098 1148.2C417.813 1147.06 418.754 1146.07 419.865 1145.31C420.976 1144.54 422.233 1144.01 423.557 1143.75L562.27 1106.41C563.947 1105.99 565.705 1106 567.376 1106.44C569.048 1106.89 570.578 1107.75 571.823 1108.95L666.025 1203.51L760.737 1108.95C761.959 1107.73 763.48 1106.86 765.148 1106.41C766.815 1105.97 768.571 1105.97 770.238 1106.41L908.748 1143.29C910.072 1143.55 911.329 1144.08 912.44 1144.85C913.551 1145.61 914.492 1146.6 915.206 1147.74C915.921 1148.89 916.392 1150.16 916.591 1151.5C916.79 1152.83 916.713 1154.19 916.364 1155.49C916.015 1156.79 915.403 1158.01 914.564 1159.07C913.725 1160.12 912.678 1160.99 911.487 1161.63C910.297 1162.26 908.989 1162.65 907.643 1162.76C906.298 1162.87 904.945 1162.7 903.667 1162.27L770.645 1126.76L672.986 1224.26C672.041 1225.21 670.917 1225.96 669.679 1226.47C668.44 1226.99 667.112 1227.25 665.771 1227.25Z" fill="#AD8D35"></path><path d="M666.279 875.898C664.574 875.87 662.902 875.415 661.419 874.572C659.936 873.73 658.69 872.529 657.794 871.079L633.964 830.749C632.616 828.502 632.218 825.813 632.857 823.272C633.495 820.732 635.118 818.549 637.368 817.204C639.619 815.858 642.312 815.461 644.856 816.098C647.401 816.736 649.587 818.356 650.935 820.603L666.178 846.475L681.066 820.704C681.706 819.573 682.565 818.579 683.593 817.781C684.62 816.983 685.796 816.396 687.052 816.054C688.308 815.712 689.62 815.622 690.911 815.789C692.202 815.956 693.447 816.376 694.575 817.026C695.702 817.676 696.689 818.542 697.479 819.575C698.27 820.608 698.847 821.787 699.178 823.044C699.51 824.301 699.588 825.612 699.41 826.899C699.231 828.187 698.799 829.426 698.138 830.546L674.816 870.825C673.978 872.345 672.751 873.616 671.26 874.508C669.769 875.399 668.068 875.879 666.33 875.898H666.279Z" fill="#AD8D35"></path><path d="M721.815 1370.72C719.209 1370.68 716.717 1369.64 714.854 1367.82L659.318 1312.02C657.479 1310.18 656.448 1307.68 656.453 1305.08C656.458 1302.48 657.498 1299.98 659.344 1298.15C661.19 1296.31 663.691 1295.28 666.297 1295.29C668.904 1295.29 671.401 1296.33 673.24 1298.17L723.441 1348.44L772.829 1320.04C773.951 1319.38 775.192 1318.94 776.482 1318.77C777.772 1318.59 779.084 1318.67 780.343 1319C781.602 1319.33 782.782 1319.9 783.817 1320.69C784.852 1321.48 785.72 1322.47 786.371 1323.59C787.022 1324.72 787.443 1325.96 787.61 1327.25C787.777 1328.54 787.687 1329.85 787.344 1331.1C787.002 1332.36 786.414 1333.53 785.614 1334.56C784.815 1335.58 783.82 1336.44 782.687 1337.08L726.795 1369.24C725.291 1370.16 723.575 1370.66 721.815 1370.72Z" fill="#AD8D35"></path><path d="M610.591 1370.92C608.811 1370.93 607.059 1370.48 605.51 1369.6L549.618 1337.23C548.485 1336.59 547.49 1335.74 546.69 1334.71C545.891 1333.68 545.303 1332.51 544.961 1331.26C544.618 1330 544.528 1328.69 544.695 1327.4C544.862 1326.11 545.283 1324.87 545.934 1323.75C546.585 1322.62 547.453 1321.63 548.488 1320.85C549.522 1320.06 550.703 1319.48 551.962 1319.15C553.221 1318.82 554.533 1318.74 555.823 1318.92C557.113 1319.1 558.354 1319.53 559.476 1320.19L609.066 1348.8L659.42 1298.32C660.331 1297.41 661.413 1296.69 662.604 1296.19C663.795 1295.7 665.073 1295.44 666.363 1295.44C667.653 1295.44 668.932 1295.69 670.125 1296.18C671.318 1296.67 672.402 1297.39 673.317 1298.3C674.231 1299.21 674.956 1300.29 675.452 1301.48C675.948 1302.67 676.205 1303.94 676.208 1305.23C676.21 1306.52 675.958 1307.8 675.466 1308.99C674.975 1310.18 674.253 1311.26 673.342 1312.17L617.45 1367.98C615.621 1369.79 613.169 1370.84 610.591 1370.92Z" fill="#AD8D35"></path><path d="M665.67 1467C663.751 1467.02 661.872 1466.45 660.284 1465.38C652.929 1461.08 646.842 1454.92 642.639 1447.51C638.436 1440.11 636.268 1431.73 636.352 1423.22C636.887 1412.53 641.167 1402.37 648.445 1394.51C627.613 1382.69 605.459 1369.45 605.205 1369.14C604.033 1368.51 603.002 1367.65 602.174 1366.6C601.345 1365.56 600.738 1364.36 600.387 1363.08C600.036 1361.79 599.95 1360.45 600.133 1359.13C600.317 1357.82 600.766 1356.55 601.453 1355.41C602.141 1354.27 603.053 1353.28 604.134 1352.5C605.216 1351.72 606.444 1351.17 607.744 1350.88C609.045 1350.59 610.391 1350.57 611.701 1350.81C613.011 1351.06 614.259 1351.56 615.367 1352.3C615.621 1352.3 643.669 1369.19 666.178 1381.67C688.585 1369.19 716.582 1352.45 716.989 1352.3C718.097 1351.56 719.344 1351.06 720.655 1350.81C721.965 1350.57 723.311 1350.59 724.611 1350.88C725.912 1351.17 727.14 1351.72 728.221 1352.5C729.303 1353.28 730.215 1354.27 730.902 1355.41C731.59 1356.55 732.039 1357.82 732.222 1359.13C732.406 1360.45 732.319 1361.79 731.969 1363.08C731.618 1364.36 731.01 1365.56 730.182 1366.6C729.354 1367.65 728.323 1368.51 727.151 1369.14C726.897 1369.14 704.743 1382.54 683.911 1394.51C691.023 1402.28 695.161 1412.3 695.597 1422.81C696.258 1439.4 687.417 1454.93 671.36 1465.43C669.68 1466.55 667.686 1467.1 665.67 1467ZM666.025 1404.86C662.963 1407.2 660.476 1410.21 658.753 1413.66C657.031 1417.11 656.117 1420.9 656.083 1424.76C656.049 1428.61 656.894 1432.42 658.555 1435.9C660.217 1439.38 662.649 1442.43 665.67 1444.83C668.869 1442.28 671.447 1439.04 673.207 1435.35C674.967 1431.65 675.865 1427.61 675.832 1423.52C675.633 1419.89 674.655 1416.35 672.963 1413.13C671.271 1409.9 668.905 1407.08 666.025 1404.86Z" fill="#AD8D35"></path><path d="M666.279 171.568C664.996 171.579 663.723 171.334 662.536 170.846C661.349 170.358 660.272 169.637 659.369 168.727C657.526 166.882 656.491 164.383 656.491 161.777C656.491 159.171 657.526 156.672 659.369 154.827L714.905 99.0243C716.425 97.4896 718.412 96.5025 720.555 96.2178C722.698 95.9332 724.875 96.3672 726.744 97.4517L782.636 129.614C783.847 130.21 784.923 131.047 785.797 132.075C786.671 133.103 787.324 134.3 787.715 135.59C788.107 136.88 788.229 138.237 788.073 139.576C787.918 140.916 787.489 142.209 786.812 143.376C786.135 144.542 785.225 145.558 784.139 146.359C783.053 147.16 781.814 147.73 780.498 148.033C779.182 148.336 777.818 148.366 776.49 148.121C775.162 147.876 773.899 147.361 772.778 146.609L723.39 118.2L673.189 168.473C672.302 169.423 671.234 170.186 670.048 170.717C668.861 171.249 667.58 171.538 666.279 171.568Z" fill="#AD8D35"></path><path d="M666.28 171.568C664.985 171.571 663.703 171.317 662.508 170.82C661.313 170.324 660.229 169.595 659.319 168.676L608.965 118.251L559.374 146.812C558.254 147.564 556.991 148.079 555.663 148.324C554.335 148.569 552.97 148.539 551.655 148.236C550.339 147.933 549.099 147.363 548.013 146.562C546.927 145.761 546.018 144.745 545.341 143.579C544.664 142.412 544.235 141.119 544.079 139.779C543.924 138.44 544.046 137.083 544.437 135.793C544.829 134.503 545.482 133.306 546.356 132.278C547.229 131.25 548.305 130.413 549.517 129.817L605.409 97.4517C607.288 96.3718 609.471 95.9405 611.62 96.2248C613.77 96.5091 615.765 97.4931 617.298 99.0243L673.19 154.827C674.572 156.196 675.515 157.946 675.898 159.852C676.281 161.758 676.087 163.735 675.34 165.531C674.593 167.327 673.328 168.86 671.705 169.935C670.083 171.01 668.176 171.578 666.229 171.568H666.28Z" fill="#AD8D35"></path><path d="M610.235 115.968C608.534 115.981 606.86 115.547 605.379 114.71C603.899 113.873 602.665 112.662 601.801 111.199C600.46 108.959 600.066 106.279 600.704 103.748C601.343 101.218 602.962 99.0441 605.205 97.705C605.459 97.705 627.612 84.3124 648.445 72.3402C641.156 64.4672 636.875 54.2846 636.352 43.5765C636.278 35.0696 638.451 26.6936 642.653 19.2925C646.854 11.8915 652.936 5.72695 660.284 1.42017C661.886 0.376776 663.757 -0.178829 665.67 -0.178829C667.582 -0.178829 669.454 0.376776 671.056 1.42017C687.112 11.9719 695.953 27.4952 695.292 44.0837C694.866 54.586 690.726 64.5976 683.606 72.3402C704.438 84.1602 726.591 97.3499 726.845 97.705C727.956 98.3712 728.925 99.2494 729.696 100.289C730.467 101.329 731.026 102.511 731.339 103.766C731.653 105.021 731.716 106.326 731.525 107.606C731.334 108.886 730.892 110.115 730.225 111.225C729.557 112.334 728.678 113.301 727.636 114.071C726.594 114.84 725.411 115.398 724.154 115.711C722.896 116.024 721.59 116.087 720.308 115.896C719.026 115.705 717.794 115.264 716.683 114.598C716.429 114.598 688.382 97.7051 665.873 85.2256C643.465 97.7051 615.469 114.395 615.062 114.598C613.593 115.45 611.934 115.921 610.235 115.968ZM665.67 22.2193C662.649 24.6185 660.216 27.6732 658.555 31.1515C656.894 34.6297 656.049 38.4401 656.083 42.2934C656.117 46.1467 657.031 49.9415 658.753 53.3897C660.476 56.838 662.963 59.849 666.025 62.1943C668.874 59.9413 671.205 57.1045 672.862 53.8752C674.518 50.646 675.462 47.0994 675.629 43.475C675.678 39.4121 674.808 35.3904 673.084 31.71C671.36 28.0295 668.825 24.7852 665.67 22.2193Z" fill="#AD8D35"></path><path d="M994.11 1315.06H865.66C864.31 1315.16 862.954 1314.98 861.677 1314.53C860.4 1314.08 859.229 1313.37 858.238 1312.45C857.247 1311.53 856.456 1310.42 855.915 1309.18C855.375 1307.94 855.096 1306.6 855.096 1305.25C855.096 1303.9 855.375 1302.56 855.915 1301.32C856.456 1300.08 857.247 1298.97 858.238 1298.04C859.229 1297.12 860.4 1296.42 861.677 1295.97C862.954 1295.52 864.31 1295.34 865.66 1295.43H988.673L1050.31 1188.9C1050.95 1187.77 1051.81 1186.78 1052.83 1185.98C1053.86 1185.18 1055.04 1184.59 1056.29 1184.25C1057.55 1183.91 1058.86 1183.82 1060.15 1183.98C1061.44 1184.15 1062.69 1184.57 1063.82 1185.22C1064.94 1185.87 1065.93 1186.74 1066.72 1187.77C1067.51 1188.8 1068.09 1189.98 1068.42 1191.24C1068.75 1192.5 1068.83 1193.81 1068.65 1195.09C1068.47 1196.38 1068.04 1197.62 1067.38 1198.74L1002.9 1310.35C1001.96 1311.82 1000.66 1313.03 999.125 1313.86C997.585 1314.68 995.858 1315.1 994.11 1315.06Z" fill="#AD8D35"></path><path d="M466.899 1315.06H337.941C336.203 1315.02 334.505 1314.53 333.01 1313.64C331.515 1312.75 330.274 1311.5 329.405 1309.99L273.768 1213.61C273.014 1212.49 272.498 1211.23 272.253 1209.9C272.007 1208.57 272.037 1207.21 272.341 1205.9C272.644 1204.58 273.215 1203.35 274.018 1202.26C274.82 1201.18 275.837 1200.27 277.006 1199.59C278.174 1198.92 279.47 1198.49 280.811 1198.33C282.152 1198.18 283.511 1198.3 284.804 1198.69C286.096 1199.08 287.294 1199.74 288.324 1200.61C289.354 1201.48 290.193 1202.55 290.789 1203.76L343.632 1295.08H466.899C468.249 1294.98 469.605 1295.16 470.883 1295.61C472.16 1296.06 473.33 1296.77 474.321 1297.69C475.313 1298.61 476.103 1299.73 476.644 1300.96C477.184 1302.2 477.463 1303.54 477.463 1304.89C477.463 1306.25 477.184 1307.58 476.644 1308.82C476.103 1310.06 475.313 1311.18 474.321 1312.1C473.33 1313.02 472.16 1313.73 470.883 1314.18C469.605 1314.62 468.249 1314.81 466.899 1314.71V1315.06Z" fill="#AD8D35"></path><path d="M923.279 970.002C921.502 970.044 919.747 969.606 918.198 968.733L684.47 834.3C682.23 832.982 680.603 830.835 679.942 828.326C679.28 825.816 679.638 823.147 680.938 820.9C682.237 818.653 684.373 817.009 686.881 816.326C689.388 815.644 692.064 815.977 694.327 817.255L921.501 947.934L1010.32 859.31C1011.85 857.778 1013.85 856.794 1016 856.51C1018.15 856.226 1020.33 856.657 1022.21 857.737L1127.54 918.41L1172.61 873.159L1154.11 804.826C1153.75 803.366 1153.72 801.844 1154.01 800.37C1154.31 798.896 1154.94 797.507 1155.84 796.303C1156.75 795.102 1157.92 794.129 1159.27 793.459C1160.62 792.79 1162.11 792.444 1163.61 792.448H1186.83L1171.59 777.229C1169.77 775.369 1168.73 772.881 1168.69 770.279V737.863C1168.69 736.57 1168.95 735.291 1169.45 734.097C1169.94 732.903 1170.67 731.818 1171.58 730.904C1172.5 729.99 1173.58 729.265 1174.78 728.77C1175.98 728.276 1177.26 728.021 1178.55 728.021C1179.84 728.021 1181.12 728.276 1182.32 728.771C1183.51 729.266 1184.59 729.992 1185.5 730.907C1186.42 731.821 1187.14 732.907 1187.63 734.1C1188.12 735.294 1188.36 736.573 1188.36 737.863V766.221L1217.47 795.238C1218.86 796.607 1219.8 798.357 1220.18 800.263C1220.56 802.169 1220.37 804.146 1219.62 805.942C1218.88 807.738 1217.61 809.271 1215.99 810.346C1214.37 811.421 1212.46 811.989 1210.51 811.979H1176.67L1188.82 856.976L1227.48 818.117C1228.4 817.198 1229.49 816.469 1230.69 815.972C1231.89 815.474 1233.17 815.218 1234.47 815.218C1235.77 815.218 1237.05 815.474 1238.25 815.972C1239.45 816.469 1240.54 817.198 1241.46 818.117L1328.85 906.285C1330.05 907.512 1330.91 909.032 1331.35 910.693C1331.78 912.355 1331.77 914.101 1331.32 915.757C1330.86 917.414 1329.99 918.923 1328.77 920.136C1327.55 921.349 1326.04 922.223 1324.38 922.671L1205.02 954.732C1202.5 955.399 1199.82 955.042 1197.57 953.739C1195.31 952.437 1193.66 950.295 1192.98 947.782L1178.7 894.972L1136.02 937.535C1134.5 939.081 1132.5 940.076 1130.35 940.361C1128.2 940.645 1126.01 940.204 1124.13 939.107L1019.16 878.536L930.24 967.161C928.387 968.989 925.885 970.01 923.279 970.002ZM1194.56 878.942L1209.19 933.273L1302.73 907.908L1234.24 838.815L1194.56 878.942Z" fill="#AD8D35"></path><path d="M929.631 1074.91C927.886 1074.9 926.176 1074.42 924.676 1073.53C923.176 1072.63 921.94 1071.36 921.095 1069.84L901.38 1035.8L844.421 1051.02C842.333 1051.56 840.123 1051.4 838.132 1050.57C836.14 1049.74 834.478 1048.28 833.399 1046.41C832.32 1044.55 831.884 1042.38 832.159 1040.24C832.434 1038.1 833.404 1036.11 834.92 1034.58L876.584 992.881L768.815 806.804C767.94 805.312 767.479 803.613 767.479 801.884C767.479 800.154 767.94 798.455 768.815 796.963C769.684 795.459 770.925 794.202 772.42 793.314C773.915 792.426 775.612 791.935 777.351 791.89L992.636 792.346L1007.88 735.275C1008.45 733.194 1009.69 731.356 1011.4 730.045C1013.12 728.734 1015.22 728.023 1017.38 728.021C1019.54 728.023 1021.64 728.734 1023.36 730.045C1025.08 731.356 1026.31 733.194 1026.88 735.275L1042.13 792.346H1081.5C1082.85 792.249 1084.21 792.431 1085.49 792.881C1086.76 793.33 1087.94 794.037 1088.93 794.958C1089.92 795.879 1090.71 796.994 1091.25 798.234C1091.79 799.473 1092.07 800.811 1092.07 802.163C1092.07 803.514 1091.79 804.852 1091.25 806.091C1090.71 807.331 1089.92 808.446 1088.93 809.367C1087.94 810.288 1086.76 810.995 1085.49 811.445C1084.21 811.894 1082.85 812.076 1081.5 811.979H1034.55C1032.39 811.977 1030.29 811.266 1028.58 809.955C1026.86 808.644 1025.62 806.806 1025.05 804.724L1017.33 775.809L1009.56 804.724C1009 806.811 1007.76 808.653 1006.04 809.965C1004.32 811.277 1002.22 811.985 1000.05 811.979L794.424 811.877L897.214 989.735C898.246 991.625 898.65 993.794 898.367 995.928C898.084 998.062 897.128 1000.05 895.638 1001.61L874.501 1022.76L903.412 1015C905.503 1014.46 907.715 1014.61 909.707 1015.45C911.699 1016.28 913.361 1017.75 914.438 1019.62L937.913 1060.2C938.566 1061.31 938.99 1062.54 939.162 1063.82C939.334 1065.1 939.25 1066.4 938.914 1067.65C938.578 1068.89 937.998 1070.06 937.207 1071.08C936.416 1072.1 935.429 1072.96 934.305 1073.59C932.89 1074.43 931.278 1074.89 929.631 1074.91Z" fill="#AD8D35"></path><path d="M1145.88 1226.95C1145.04 1226.95 1144.2 1226.83 1143.39 1226.59L1023.73 1194.84C1022.49 1194.51 1021.32 1193.94 1020.29 1193.16C1019.27 1192.37 1018.42 1191.39 1017.79 1190.27C1017.13 1189.16 1016.71 1187.92 1016.53 1186.64C1016.36 1185.36 1016.44 1184.06 1016.77 1182.81L1030.95 1130.05L985.522 1142.18L1002.54 1171.6C1003.52 1173.28 1003.98 1175.22 1003.85 1177.15C1003.72 1179.09 1003.02 1180.95 1001.83 1182.49C1000.64 1184.03 999.023 1185.18 997.178 1185.8C995.332 1186.42 993.344 1186.47 991.467 1185.96L951.733 1175.36L927.192 1189.51C926.072 1190.26 924.808 1190.78 923.48 1191.02C922.152 1191.27 920.788 1191.24 919.472 1190.93C918.156 1190.63 916.917 1190.06 915.831 1189.26C914.745 1188.46 913.835 1187.44 913.158 1186.28C912.482 1185.11 912.052 1183.82 911.897 1182.48C911.741 1181.14 911.863 1179.78 912.255 1178.49C912.646 1177.2 913.299 1176 914.173 1174.98C915.047 1173.95 916.123 1173.11 917.335 1172.51L945.433 1156.28C947.707 1155.02 950.381 1154.67 952.902 1155.32L973.633 1160.85L962.099 1140.91C961.328 1139.58 960.879 1138.09 960.788 1136.56C960.696 1135.03 960.965 1133.5 961.572 1132.09C962.18 1130.68 963.109 1129.43 964.285 1128.44C965.462 1127.46 966.853 1126.76 968.348 1126.4L1037.1 1108.04L1053.61 1046.45L1030.24 1033.21L948.431 986.032C946.551 984.953 945.083 983.282 944.255 981.281C943.428 979.28 943.288 977.062 943.858 974.973L976.377 853.679L749.304 722.897C747.181 721.53 745.665 719.401 745.068 716.95C744.472 714.499 744.841 711.913 746.1 709.725C747.358 707.538 749.409 705.917 751.83 705.196C754.252 704.475 756.858 704.71 759.11 705.852L992.839 840.387C994.719 841.467 996.187 843.138 997.014 845.138C997.842 847.139 997.981 849.358 997.412 851.446L964.842 972.792L1040.09 1016.17L1069.97 1033.11C1071.84 1034.22 1073.3 1035.9 1074.14 1037.9C1074.98 1039.9 1075.16 1042.11 1074.64 1044.22L1059.1 1102.15L1112.04 1088C1113.29 1087.65 1114.59 1087.55 1115.87 1087.72C1117.16 1087.88 1118.39 1088.31 1119.51 1088.96C1121.77 1090.27 1123.41 1092.43 1124.08 1094.95L1155.74 1214.52C1156.17 1216.18 1156.16 1217.93 1155.71 1219.58C1155.25 1221.24 1154.37 1222.75 1153.15 1223.95C1152.21 1224.93 1151.08 1225.7 1149.83 1226.22C1148.58 1226.73 1147.23 1226.98 1145.88 1226.95ZM1038.31 1178.4L1132.06 1203.31L1107.26 1109.61L1052.9 1124.17L1038.31 1178.4Z" fill="#AD8D35"></path><path d="M906.207 1163.08C905.347 1163.08 904.492 1162.97 903.667 1162.72C902.417 1162.39 901.245 1161.82 900.217 1161.04C899.19 1160.25 898.329 1159.27 897.682 1158.16C897.035 1157.04 896.615 1155.81 896.448 1154.53C896.28 1153.25 896.368 1151.95 896.706 1150.7L933.645 1012.06C934.125 1010.4 935.021 1008.89 936.248 1007.67C937.475 1006.46 938.992 1005.57 940.657 1005.11L1069.97 970.915L1035.32 841.757C1034.87 840.093 1034.86 838.339 1035.31 836.673C1035.76 835.007 1036.63 833.488 1037.86 832.271L1139.07 730.811C1140.95 729.12 1143.4 728.214 1145.93 728.278C1148.46 728.342 1150.86 729.373 1152.65 731.157C1154.43 732.942 1155.47 735.343 1155.53 737.865C1155.6 740.388 1154.69 742.838 1152.99 744.711L1055.59 842.315L1091.16 975.531C1091.51 976.784 1091.6 978.093 1091.44 979.383C1091.27 980.672 1090.85 981.915 1090.19 983.039C1088.85 985.272 1086.71 986.907 1084.2 987.605L951.073 1022.81L915.505 1155.98C914.926 1158 913.709 1159.79 912.034 1161.06C910.359 1162.34 908.316 1163.05 906.207 1163.08Z" fill="#AD8D35"></path><path d="M730.453 811.877C727.968 811.699 725.642 810.587 723.945 808.766C722.247 806.945 721.303 804.549 721.303 802.061C721.303 799.573 722.247 797.178 723.945 795.356C725.642 793.535 727.968 792.423 730.453 792.245L760.482 791.941L745.493 766.221C744.214 763.962 743.88 761.29 744.563 758.787C745.247 756.283 746.894 754.151 749.145 752.853C751.395 751.555 754.068 751.198 756.582 751.858C759.095 752.519 761.246 754.144 762.565 756.379L785.837 796.963C786.699 798.444 787.157 800.125 787.165 801.838C787.173 803.551 786.731 805.237 785.882 806.726C785.034 808.215 783.809 809.456 782.33 810.324C780.85 811.192 779.169 811.658 777.453 811.674L730.555 812.131L730.453 811.877Z" fill="#AD8D35"></path><path d="M1158.28 1031.18C1155.9 1031.16 1153.61 1030.28 1151.83 1028.71C1150.05 1027.14 1148.9 1024.98 1148.59 1022.62C1148.28 1020.27 1148.83 1017.88 1150.15 1015.9C1151.46 1013.92 1153.45 1012.49 1155.74 1011.85L1224.43 993.591V936.672C1224.45 934.08 1225.48 931.597 1227.32 929.764C1229.16 927.931 1231.64 926.895 1234.24 926.882C1235.53 926.882 1236.81 927.136 1238.01 927.632C1239.2 928.127 1240.28 928.852 1241.19 929.767C1242.1 930.682 1242.83 931.767 1243.32 932.961C1243.8 934.154 1244.05 935.433 1244.05 936.723V1001.2C1244.04 1003.35 1243.33 1005.44 1242.01 1007.15C1240.7 1008.85 1238.86 1010.08 1236.78 1010.64L1160.57 1030.93C1159.81 1031.09 1159.05 1031.18 1158.28 1031.18Z" fill="#AD8D35"></path><path d="M1122.71 1139.59C1120.52 1139.65 1118.38 1138.97 1116.62 1137.67C1114.86 1136.37 1113.58 1134.52 1113 1132.42C1112.42 1130.31 1112.55 1128.07 1113.39 1126.05C1114.23 1124.03 1115.72 1122.35 1117.63 1121.28L1167.22 1092.67L1148.62 1023.93C1148.19 1022.65 1148.02 1021.3 1148.13 1019.96C1148.24 1018.61 1148.63 1017.31 1149.26 1016.12C1149.9 1014.93 1150.77 1013.88 1151.83 1013.05C1152.89 1012.21 1154.11 1011.6 1155.41 1011.25C1156.71 1010.9 1158.08 1010.82 1159.41 1011.02C1160.75 1011.22 1162.03 1011.69 1163.17 1012.41C1164.32 1013.12 1165.3 1014.06 1166.07 1015.17C1166.84 1016.28 1167.37 1017.53 1167.63 1018.85L1187.95 1094.95C1188.52 1097.04 1188.38 1099.26 1187.55 1101.26C1186.73 1103.26 1185.26 1104.93 1183.38 1106.01L1127.49 1138.37C1126.03 1139.18 1124.38 1139.6 1122.71 1139.59Z" fill="#AD8D35"></path><path d="M1269.2 1112.91C1260.88 1112.97 1252.71 1110.64 1245.67 1106.21C1236.65 1100.41 1229.96 1091.63 1226.77 1081.4C1206.14 1093.48 1183.58 1106.06 1183.28 1106.21C1181 1107.48 1178.31 1107.79 1175.81 1107.07C1173.3 1106.36 1171.18 1104.68 1169.91 1102.41C1168.65 1100.13 1168.34 1097.45 1169.05 1094.95C1169.77 1092.44 1171.45 1090.33 1173.72 1089.06C1174.03 1089.06 1202.53 1073.03 1224.54 1059.84C1224.94 1034.23 1224.54 1001.66 1224.54 1001.3C1224.67 998.815 1225.75 996.472 1227.55 994.745C1229.34 993.019 1231.73 992.037 1234.23 991.999C1236.72 991.96 1239.14 992.867 1240.99 994.537C1242.84 996.207 1243.99 998.516 1244.2 1001C1244.2 1001.3 1244.61 1027.07 1244.2 1051.02C1254.52 1048.71 1265.32 1050.13 1274.69 1055.02C1289.42 1062.74 1298.47 1078.16 1299.58 1097.28C1299.69 1099.19 1299.24 1101.09 1298.28 1102.75C1297.33 1104.41 1295.91 1105.75 1294.2 1106.62C1286.47 1110.64 1277.91 1112.8 1269.2 1112.91ZM1244.5 1071.36C1245.01 1075.19 1246.37 1078.85 1248.51 1082.07C1250.64 1085.29 1253.48 1087.98 1256.81 1089.93C1260.15 1091.89 1263.88 1093.06 1267.74 1093.36C1271.59 1093.66 1275.46 1093.07 1279.06 1091.65C1278.39 1087.64 1276.82 1083.83 1274.48 1080.51C1272.15 1077.18 1269.09 1074.42 1265.54 1072.42C1262.31 1070.76 1258.77 1069.8 1255.14 1069.61C1251.51 1069.43 1247.88 1070.02 1244.5 1071.36Z" fill="#AD8D35"></path><path d="M1257.97 858.802C1256.18 858.845 1254.42 858.388 1252.89 857.483C1251.77 856.842 1250.79 855.986 1250 854.965C1249.21 853.945 1248.63 852.779 1248.3 851.535C1247.96 850.29 1247.88 848.992 1248.05 847.715C1248.22 846.438 1248.63 845.206 1249.28 844.091L1310.66 737.914L1249.03 631.381C1247.75 629.123 1247.41 626.451 1248.1 623.947C1248.78 621.444 1250.43 619.311 1252.68 618.014C1254.93 616.716 1257.6 616.359 1260.11 617.019C1262.63 617.679 1264.78 619.304 1266.1 621.54L1330.58 733.145C1331.41 734.651 1331.85 736.344 1331.85 738.066C1331.85 739.787 1331.41 741.481 1330.58 742.987L1266.3 854.034C1265.45 855.482 1264.23 856.683 1262.77 857.519C1261.31 858.355 1259.65 858.798 1257.97 858.802Z" fill="#AD8D35"></path><path d="M994.11 1315.06H882.783C881.433 1315.16 880.077 1314.98 878.8 1314.53C877.523 1314.08 876.352 1313.37 875.361 1312.45C874.37 1311.53 873.579 1310.42 873.039 1309.18C872.498 1307.94 872.219 1306.6 872.219 1305.25C872.219 1303.9 872.498 1302.56 873.039 1301.32C873.579 1300.08 874.37 1298.97 875.361 1298.04C876.352 1297.12 877.523 1296.42 878.8 1295.97C880.077 1295.52 881.433 1295.34 882.783 1295.43H988.673L1050.31 1188.9C1050.95 1187.77 1051.81 1186.78 1052.83 1185.98C1053.86 1185.18 1055.04 1184.59 1056.29 1184.25C1057.55 1183.91 1058.86 1183.82 1060.15 1183.98C1061.44 1184.15 1062.69 1184.57 1063.82 1185.22C1064.94 1185.87 1065.93 1186.74 1066.72 1187.77C1067.51 1188.8 1068.09 1189.98 1068.42 1191.24C1068.75 1192.5 1068.83 1193.81 1068.65 1195.09C1068.47 1196.38 1068.04 1197.62 1067.38 1198.74L1002.9 1310.35C1001.96 1311.82 1000.66 1313.03 999.125 1313.86C997.585 1314.68 995.857 1315.1 994.11 1315.06Z" fill="#AD8D35"></path><path d="M754.029 771.294C751.846 771.327 749.714 770.637 747.966 769.33C746.219 768.024 744.956 766.175 744.374 764.074C743.793 761.973 743.927 759.738 744.754 757.721C745.582 755.704 747.057 754.019 748.948 752.929L975.868 621.895L943.401 500.702C942.857 498.614 943.014 496.407 943.85 494.418C944.685 492.429 946.152 490.769 948.024 489.693L1053.15 429.071L1036.43 367.536L968.348 349.324C966.898 348.914 965.558 348.186 964.424 347.195C963.291 346.204 962.392 344.973 961.794 343.592C961.216 342.2 960.965 340.694 961.062 339.19C961.159 337.686 961.601 336.224 962.353 334.917L973.887 314.98L953.105 320.51C950.577 321.14 947.904 320.777 945.636 319.495L917.538 303.313C916.326 302.717 915.25 301.879 914.376 300.851C913.503 299.823 912.85 298.627 912.458 297.337C912.066 296.046 911.945 294.689 912.1 293.35C912.256 292.011 912.685 290.718 913.362 289.551C914.038 288.384 914.948 287.369 916.034 286.568C917.12 285.767 918.36 285.197 919.675 284.894C920.991 284.59 922.356 284.56 923.683 284.806C925.011 285.051 926.275 285.565 927.395 286.318L951.937 300.472L991.671 289.818C993.55 289.321 995.535 289.39 997.376 290.017C999.216 290.643 1000.83 291.799 1002.01 293.339C1003.2 294.879 1003.9 296.735 1004.03 298.672C1004.16 300.609 1003.71 302.541 1002.75 304.226L985.776 333.649L1030.85 345.621L1016.47 292.71C1015.87 290.184 1016.26 287.524 1017.56 285.278C1018.87 283.032 1020.98 281.371 1023.48 280.636L1143.59 249.184C1145.26 248.746 1147.01 248.752 1148.68 249.201C1150.34 249.649 1151.86 250.526 1153.07 251.742C1154.29 252.959 1155.17 254.473 1155.62 256.133C1156.07 257.794 1156.07 259.543 1155.64 261.207L1123.52 380.675C1123.19 381.923 1122.62 383.093 1121.83 384.119C1121.05 385.144 1120.07 386.005 1118.95 386.651C1117.83 387.297 1116.6 387.715 1115.31 387.882C1114.03 388.05 1112.73 387.962 1111.48 387.625L1058.54 373.573L1074.24 431.405C1074.8 433.494 1074.65 435.709 1073.83 437.708C1073 439.707 1071.54 441.378 1069.66 442.464L964.538 503.339L997.006 624.178C997.554 626.259 997.404 628.463 996.578 630.451C995.752 632.44 994.296 634.103 992.433 635.186L758.704 770.076C757.266 770.851 755.663 771.269 754.029 771.294ZM1052.59 351.455L1107.06 365.913L1132.06 272.469L1037.86 297.174L1052.59 351.455Z" fill="#AD8D35"></path><path d="M1017.48 747.552C1015.32 747.559 1013.21 746.851 1011.5 745.539C1009.78 744.227 1008.54 742.384 1007.98 740.298L992.738 683.43H777.097C775.367 683.43 773.667 682.975 772.169 682.111C770.67 681.247 769.426 680.005 768.561 678.509C767.696 677.013 767.241 675.316 767.241 673.588C767.241 671.861 767.696 670.164 768.561 668.668L876.585 482.794L834.717 440.993C833.201 439.459 832.231 437.471 831.956 435.333C831.681 433.196 832.116 431.027 833.195 429.161C834.274 427.294 835.937 425.833 837.928 425.001C839.92 424.169 842.13 424.013 844.218 424.556L901.38 439.775L921.095 406.04C921.739 404.924 922.596 403.946 923.619 403.161C924.641 402.376 925.809 401.8 927.054 401.466C928.3 401.131 929.6 401.045 930.879 401.212C932.158 401.379 933.391 401.796 934.509 402.438C935.626 403.081 936.606 403.938 937.392 404.959C938.179 405.98 938.756 407.145 939.091 408.389C939.426 409.632 939.512 410.93 939.345 412.207C939.178 413.484 938.76 414.715 938.116 415.831L914.642 456.415C913.561 458.291 911.887 459.757 909.883 460.583C907.879 461.409 905.657 461.549 903.565 460.98L874.654 453.269L895.842 474.424C897.367 475.96 898.343 477.955 898.619 480.101C898.894 482.247 898.454 484.424 897.366 486.295L794.17 663.848H1000.16C1002.32 663.853 1004.43 664.572 1006.15 665.892C1007.87 667.213 1009.1 669.062 1009.66 671.153L1017.43 699.968L1025.15 671.153C1025.72 669.071 1026.96 667.234 1028.68 665.923C1030.39 664.612 1032.5 663.901 1034.66 663.899H1081.61C1082.96 663.802 1084.31 663.984 1085.59 664.433C1086.87 664.883 1088.04 665.59 1089.03 666.511C1090.02 667.432 1090.81 668.547 1091.35 669.786C1091.89 671.026 1092.17 672.363 1092.17 673.715C1092.17 675.067 1091.89 676.404 1091.35 677.644C1090.81 678.883 1090.02 679.999 1089.03 680.92C1088.04 681.841 1086.87 682.548 1085.59 682.997C1084.31 683.447 1082.96 683.628 1081.61 683.531H1042.23L1026.98 740.399C1026.37 742.456 1025.12 744.267 1023.42 745.57C1021.71 746.873 1019.63 747.603 1017.48 747.654V747.552Z" fill="#AD8D35"></path><path d="M1178.5 747.755C1175.89 747.755 1173.38 746.718 1171.53 744.872C1169.68 743.027 1168.64 740.524 1168.64 737.914V705.345C1168.68 702.743 1169.72 700.255 1171.54 698.395L1186.78 683.176H1163.72C1162.21 683.18 1160.72 682.834 1159.37 682.165C1158.02 681.495 1156.85 680.522 1155.94 679.321C1155.04 678.117 1154.42 676.728 1154.12 675.254C1153.82 673.78 1153.85 672.258 1154.21 670.798L1172.66 602.161L1127.54 557.113L1104.37 570.658L1022.51 617.836C1020.63 618.916 1018.45 619.347 1016.3 619.063C1014.15 618.779 1012.16 617.795 1010.62 616.264L921.552 527.791L694.581 658.674C692.339 659.776 689.761 659.987 687.369 659.263C684.977 658.539 682.949 656.936 681.697 654.776C680.444 652.617 680.06 650.063 680.622 647.632C681.184 645.2 682.65 643.073 684.724 641.679L918.452 506.891C920.345 505.86 922.517 505.456 924.655 505.739C926.792 506.022 928.784 506.976 930.342 508.463L1019.16 597.291L1094.41 553.917L1124.08 536.568C1125.96 535.469 1128.15 535.022 1130.31 535.297C1132.47 535.573 1134.48 536.554 1136.02 538.089L1178.5 580.499L1192.63 527.791C1193.33 525.284 1194.96 523.141 1197.2 521.805C1198.32 521.152 1199.57 520.73 1200.86 520.564C1202.15 520.399 1203.47 520.493 1204.72 520.841L1324.02 553.156C1325.68 553.612 1327.2 554.495 1328.41 555.717C1329.62 556.939 1330.5 558.458 1330.94 560.121C1331.38 561.784 1331.38 563.534 1330.93 565.196C1330.48 566.858 1329.61 568.374 1328.39 569.592L1241.05 657.152C1239.18 658.953 1236.69 659.969 1234.09 659.993C1232.8 660 1231.52 659.752 1230.32 659.265C1229.13 658.777 1228.04 658.059 1227.13 657.152L1188.41 618.496L1176.67 663.797H1210.66C1212.61 663.787 1214.52 664.355 1216.14 665.43C1217.76 666.505 1219.03 668.038 1219.78 669.834C1220.52 671.63 1220.72 673.607 1220.33 675.513C1219.95 677.419 1219.01 679.169 1217.63 680.538L1188.51 709.556V737.914C1188.52 739.221 1188.26 740.516 1187.76 741.723C1187.26 742.931 1186.52 744.025 1185.59 744.942C1184.65 745.86 1183.55 746.581 1182.33 747.064C1181.11 747.547 1179.81 747.782 1178.5 747.755ZM1194.51 596.53L1234.29 636.251L1302.73 567.614L1209.09 542.249L1194.51 596.53Z" fill="#AD8D35"></path><path d="M1146.19 747.755C1144.89 747.758 1143.61 747.504 1142.41 747.008C1141.22 746.511 1140.13 745.782 1139.22 744.863L1037.6 643.404C1036.38 642.186 1035.5 640.668 1035.06 639.002C1034.61 637.336 1034.61 635.582 1035.06 633.918L1069.97 505.318L940.555 470.72C938.887 470.273 937.365 469.395 936.144 468.175C934.922 466.955 934.042 465.436 933.594 463.77L896.401 325.583C895.966 324.307 895.798 322.956 895.908 321.613C896.018 320.269 896.403 318.963 897.039 317.774C897.675 316.586 898.549 315.54 899.607 314.703C900.664 313.865 901.882 313.254 903.186 312.905C904.49 312.557 905.852 312.48 907.187 312.679C908.522 312.878 909.802 313.349 910.948 314.062C912.093 314.774 913.08 315.715 913.846 316.824C914.613 317.933 915.143 319.188 915.404 320.51L950.971 453.219L1084.45 488.729C1086.97 489.422 1089.1 491.082 1090.4 493.346C1091.05 494.46 1091.48 495.695 1091.64 496.976C1091.81 498.258 1091.71 499.559 1091.36 500.803L1055.39 633.563L1153.1 730.811C1154.47 732.185 1155.4 733.932 1155.78 735.834C1156.16 737.736 1155.97 739.708 1155.23 741.502C1154.5 743.296 1153.24 744.832 1151.63 745.917C1150.02 747.003 1148.13 747.589 1146.19 747.603V747.755Z" fill="#AD8D35"></path><path d="M754.029 724.216C752.251 724.269 750.493 723.83 748.948 722.948C746.731 721.614 745.107 719.485 744.408 716.996C743.709 714.507 743.988 711.846 745.188 709.555L759.974 683.43H730.199C728.849 683.527 727.492 683.345 726.215 682.896C724.938 682.446 723.768 681.739 722.776 680.818C721.785 679.897 720.995 678.782 720.454 677.542C719.914 676.303 719.635 674.965 719.635 673.614C719.635 672.262 719.914 670.924 720.454 669.685C720.995 668.445 721.785 667.33 722.776 666.409C723.768 665.488 724.938 664.781 726.215 664.332C727.492 663.882 728.849 663.7 730.199 663.797H776.843C778.557 663.797 780.241 664.246 781.727 665.098C783.214 665.95 784.45 667.177 785.314 668.655C786.178 670.133 786.638 671.811 786.649 673.523C786.661 675.234 786.223 676.918 785.379 678.408L762.312 718.991C761.511 720.511 760.324 721.793 758.871 722.71C757.417 723.627 755.748 724.147 754.029 724.216Z" fill="#AD8D35"></path><path d="M1158.02 463.821C1157.15 463.82 1156.28 463.718 1155.43 463.517C1152.91 462.829 1150.77 461.171 1149.48 458.907C1148.18 456.644 1147.84 453.959 1148.52 451.443L1167.02 382.907L1117.68 354.397C1115.61 353.004 1114.14 350.877 1113.58 348.445C1113.02 346.014 1113.4 343.46 1114.65 341.3C1115.91 339.141 1117.93 337.537 1120.33 336.814C1122.72 336.09 1125.3 336.301 1127.54 337.403L1183.43 369.718C1185.31 370.797 1186.78 372.468 1187.61 374.469C1188.43 376.47 1188.57 378.688 1188 380.777L1167.68 456.567C1167.06 458.648 1165.79 460.476 1164.05 461.782C1162.31 463.088 1160.2 463.803 1158.02 463.821Z" fill="#AD8D35"></path><path d="M1234.29 548.793C1233 548.8 1231.72 548.552 1230.52 548.063C1229.33 547.574 1228.24 546.854 1227.32 545.944C1226.41 545.034 1225.68 543.952 1225.19 542.761C1224.69 541.57 1224.43 540.293 1224.43 539.003V481.779L1155.48 463.517C1152.96 462.844 1150.8 461.197 1149.49 458.937C1148.18 456.678 1147.82 453.991 1148.5 451.468C1149.17 448.946 1150.82 446.794 1153.08 445.486C1155.35 444.178 1158.04 443.82 1160.57 444.493L1236.78 464.785C1238.86 465.39 1240.69 466.641 1242 468.356C1243.32 470.072 1244.05 472.162 1244.1 474.322V539.053C1244.1 540.337 1243.84 541.607 1243.35 542.792C1242.86 543.977 1242.13 545.054 1241.22 545.959C1240.31 546.864 1239.23 547.58 1238.04 548.067C1236.85 548.553 1235.58 548.8 1234.29 548.793Z" fill="#AD8D35"></path><path d="M1234.29 484.468C1232.98 484.455 1231.69 484.181 1230.49 483.661C1229.28 483.141 1228.2 482.385 1227.29 481.44C1226.39 480.494 1225.68 479.377 1225.22 478.155C1224.75 476.932 1224.54 475.629 1224.59 474.322C1224.59 473.967 1225.09 441.348 1224.59 415.78C1202.59 402.591 1174.08 386.763 1173.78 386.56C1171.5 385.295 1169.82 383.179 1169.1 380.677C1168.39 378.175 1168.7 375.492 1169.96 373.218C1171.23 370.944 1173.35 369.266 1175.86 368.553C1178.36 367.839 1181.05 368.149 1183.33 369.413C1183.63 369.413 1206.14 382.096 1226.82 394.22C1229.95 384.179 1236.56 375.582 1245.47 369.971C1259.54 361.094 1277.43 360.992 1294.6 369.616C1296.32 370.476 1297.74 371.818 1298.7 373.477C1299.66 375.136 1300.1 377.039 1299.99 378.951C1299.91 387.456 1297.59 395.791 1293.27 403.119C1288.94 410.447 1282.76 416.511 1275.35 420.701C1265.79 425.595 1254.82 426.978 1244.35 424.607C1244.35 448.501 1244.35 474.322 1244.35 474.627C1244.37 475.94 1244.11 477.243 1243.61 478.457C1243.11 479.671 1242.36 480.771 1241.42 481.69C1240.48 482.609 1239.37 483.329 1238.14 483.807C1236.92 484.284 1235.61 484.509 1234.29 484.468ZM1244.45 404.468C1248.02 405.944 1251.88 406.588 1255.74 406.35C1259.6 406.113 1263.35 405.001 1266.71 403.098C1270.07 401.195 1272.95 398.552 1275.13 395.37C1277.32 392.188 1278.75 388.55 1279.31 384.734C1275.5 383.3 1271.42 382.738 1267.37 383.089C1263.31 383.44 1259.39 384.696 1255.89 386.763C1252.85 388.749 1250.26 391.352 1248.3 394.403C1246.34 397.454 1245.05 400.883 1244.5 404.468H1244.45Z" fill="#AD8D35"></path><path d="M1058.33 291.442C1056.59 291.432 1054.88 290.956 1053.37 290.064C1051.87 289.172 1050.64 287.897 1049.8 286.369L988.673 180.395H865.152C863.801 180.492 862.445 180.31 861.168 179.86C859.891 179.411 858.72 178.704 857.729 177.783C856.738 176.862 855.948 175.747 855.407 174.507C854.867 173.268 854.587 171.93 854.587 170.578C854.587 169.226 854.867 167.889 855.407 166.65C855.948 165.41 856.738 164.295 857.729 163.374C858.72 162.453 859.891 161.746 861.168 161.296C862.445 160.847 863.801 160.665 865.152 160.762H994.109C995.848 160.808 997.546 161.298 999.041 162.186C1000.54 163.075 1001.78 164.331 1002.65 165.835L1066.87 276.933C1067.72 278.428 1068.17 280.12 1068.16 281.84C1068.16 283.56 1067.7 285.248 1066.83 286.737C1065.97 288.225 1064.73 289.461 1063.24 290.323C1061.75 291.184 1060.06 291.64 1058.33 291.645V291.442Z" fill="#AD8D35"></path><path d="M1266.51 843.989C1264.78 843.99 1263.09 843.538 1261.59 842.677C1260.1 841.815 1258.86 840.576 1258 839.084C1257.14 837.592 1256.69 835.9 1256.69 834.178C1256.69 832.456 1257.15 830.766 1258.02 829.278L1310.81 737.964L1249.18 631.432C1247.9 629.173 1247.57 626.501 1248.25 623.998C1248.93 621.494 1250.58 619.362 1252.83 618.064C1255.08 616.767 1257.75 616.409 1260.27 617.07C1262.78 617.73 1264.93 619.355 1266.25 621.59L1330.73 733.196C1331.57 734.701 1332.01 736.395 1332.01 738.116C1332.01 739.838 1331.57 741.531 1330.73 743.037L1274.84 839.423C1273.95 840.827 1272.72 841.983 1271.26 842.782C1269.81 843.58 1268.17 843.996 1266.51 843.989Z" fill="#AD8D35"></path></g><defs><clipPath id="clip0_2014_69"><rect width="1332" height="1467" fill="white"></rect></clipPath></defs></svg>